<mxfile host="app.diagrams.net" agent="Mozilla/5.0 (Windows NT 10.0; Win64; x64) AppleWebKit/537.36 (KHTML, like Gecko) Chrome/139.0.0.0 Safari/537.36" version="28.1.0" pages="2">
  <diagram name="Page-1" id="gqwNwa2NCAI436CAT4Az">
    <mxGraphModel dx="5125" dy="2485" grid="1" gridSize="10" guides="1" tooltips="1" connect="1" arrows="1" fold="1" page="1" pageScale="1" pageWidth="827" pageHeight="1169" math="0" shadow="0">
      <root>
        <mxCell id="0" />
        <mxCell id="1" parent="0" />
        <mxCell id="XaADmC9wufVWzygDD67X-146" value="USERS" style="shape=table;startSize=25;container=1;collapsible=0;childLayout=tableLayout;fixedRows=1;rowLines=1;fontStyle=1;align=center;resizeLast=1;" vertex="1" parent="1">
          <mxGeometry x="605" y="251" width="510" height="475" as="geometry" />
        </mxCell>
        <mxCell id="XaADmC9wufVWzygDD67X-147" style="shape=tableRow;horizontal=0;startSize=0;swimlaneHead=0;swimlaneBody=0;fillColor=none;collapsible=0;dropTarget=0;points=[[0,0.5],[1,0.5]];portConstraint=eastwest;top=0;left=0;right=0;bottom=0;" vertex="1" parent="XaADmC9wufVWzygDD67X-146">
          <mxGeometry y="25" width="510" height="45" as="geometry" />
        </mxCell>
        <mxCell id="XaADmC9wufVWzygDD67X-148" value="int" style="shape=partialRectangle;connectable=0;fillColor=none;top=0;left=0;bottom=0;right=0;align=left;spacingLeft=2;overflow=hidden;fontSize=11;" vertex="1" parent="XaADmC9wufVWzygDD67X-147">
          <mxGeometry width="48" height="45" as="geometry">
            <mxRectangle width="48" height="45" as="alternateBounds" />
          </mxGeometry>
        </mxCell>
        <mxCell id="XaADmC9wufVWzygDD67X-149" value="user_id" style="shape=partialRectangle;connectable=0;fillColor=none;top=0;left=0;bottom=0;right=0;align=left;spacingLeft=2;overflow=hidden;fontSize=11;" vertex="1" parent="XaADmC9wufVWzygDD67X-147">
          <mxGeometry x="48" width="276" height="45" as="geometry">
            <mxRectangle width="276" height="45" as="alternateBounds" />
          </mxGeometry>
        </mxCell>
        <mxCell id="XaADmC9wufVWzygDD67X-150" value="PK" style="shape=partialRectangle;connectable=0;fillColor=none;top=0;left=0;bottom=0;right=0;align=left;spacingLeft=2;overflow=hidden;fontSize=11;" vertex="1" parent="XaADmC9wufVWzygDD67X-147">
          <mxGeometry x="324" width="186" height="45" as="geometry">
            <mxRectangle width="186" height="45" as="alternateBounds" />
          </mxGeometry>
        </mxCell>
        <mxCell id="XaADmC9wufVWzygDD67X-151" style="shape=tableRow;horizontal=0;startSize=0;swimlaneHead=0;swimlaneBody=0;fillColor=none;collapsible=0;dropTarget=0;points=[[0,0.5],[1,0.5]];portConstraint=eastwest;top=0;left=0;right=0;bottom=0;" vertex="1" parent="XaADmC9wufVWzygDD67X-146">
          <mxGeometry y="70" width="510" height="45" as="geometry" />
        </mxCell>
        <mxCell id="XaADmC9wufVWzygDD67X-152" value="string" style="shape=partialRectangle;connectable=0;fillColor=none;top=0;left=0;bottom=0;right=0;align=left;spacingLeft=2;overflow=hidden;fontSize=11;" vertex="1" parent="XaADmC9wufVWzygDD67X-151">
          <mxGeometry width="48" height="45" as="geometry">
            <mxRectangle width="48" height="45" as="alternateBounds" />
          </mxGeometry>
        </mxCell>
        <mxCell id="XaADmC9wufVWzygDD67X-153" value="firstname" style="shape=partialRectangle;connectable=0;fillColor=none;top=0;left=0;bottom=0;right=0;align=left;spacingLeft=2;overflow=hidden;fontSize=11;" vertex="1" parent="XaADmC9wufVWzygDD67X-151">
          <mxGeometry x="48" width="276" height="45" as="geometry">
            <mxRectangle width="276" height="45" as="alternateBounds" />
          </mxGeometry>
        </mxCell>
        <mxCell id="XaADmC9wufVWzygDD67X-154" value="" style="shape=partialRectangle;connectable=0;fillColor=none;top=0;left=0;bottom=0;right=0;align=left;spacingLeft=2;overflow=hidden;fontSize=11;" vertex="1" parent="XaADmC9wufVWzygDD67X-151">
          <mxGeometry x="324" width="186" height="45" as="geometry">
            <mxRectangle width="186" height="45" as="alternateBounds" />
          </mxGeometry>
        </mxCell>
        <mxCell id="XaADmC9wufVWzygDD67X-155" style="shape=tableRow;horizontal=0;startSize=0;swimlaneHead=0;swimlaneBody=0;fillColor=none;collapsible=0;dropTarget=0;points=[[0,0.5],[1,0.5]];portConstraint=eastwest;top=0;left=0;right=0;bottom=0;" vertex="1" parent="XaADmC9wufVWzygDD67X-146">
          <mxGeometry y="115" width="510" height="45" as="geometry" />
        </mxCell>
        <mxCell id="XaADmC9wufVWzygDD67X-156" value="string" style="shape=partialRectangle;connectable=0;fillColor=none;top=0;left=0;bottom=0;right=0;align=left;spacingLeft=2;overflow=hidden;fontSize=11;" vertex="1" parent="XaADmC9wufVWzygDD67X-155">
          <mxGeometry width="48" height="45" as="geometry">
            <mxRectangle width="48" height="45" as="alternateBounds" />
          </mxGeometry>
        </mxCell>
        <mxCell id="XaADmC9wufVWzygDD67X-157" value="lastname" style="shape=partialRectangle;connectable=0;fillColor=none;top=0;left=0;bottom=0;right=0;align=left;spacingLeft=2;overflow=hidden;fontSize=11;" vertex="1" parent="XaADmC9wufVWzygDD67X-155">
          <mxGeometry x="48" width="276" height="45" as="geometry">
            <mxRectangle width="276" height="45" as="alternateBounds" />
          </mxGeometry>
        </mxCell>
        <mxCell id="XaADmC9wufVWzygDD67X-158" value="" style="shape=partialRectangle;connectable=0;fillColor=none;top=0;left=0;bottom=0;right=0;align=left;spacingLeft=2;overflow=hidden;fontSize=11;" vertex="1" parent="XaADmC9wufVWzygDD67X-155">
          <mxGeometry x="324" width="186" height="45" as="geometry">
            <mxRectangle width="186" height="45" as="alternateBounds" />
          </mxGeometry>
        </mxCell>
        <mxCell id="XaADmC9wufVWzygDD67X-159" style="shape=tableRow;horizontal=0;startSize=0;swimlaneHead=0;swimlaneBody=0;fillColor=none;collapsible=0;dropTarget=0;points=[[0,0.5],[1,0.5]];portConstraint=eastwest;top=0;left=0;right=0;bottom=0;" vertex="1" parent="XaADmC9wufVWzygDD67X-146">
          <mxGeometry y="160" width="510" height="45" as="geometry" />
        </mxCell>
        <mxCell id="XaADmC9wufVWzygDD67X-160" value="string" style="shape=partialRectangle;connectable=0;fillColor=none;top=0;left=0;bottom=0;right=0;align=left;spacingLeft=2;overflow=hidden;fontSize=11;" vertex="1" parent="XaADmC9wufVWzygDD67X-159">
          <mxGeometry width="48" height="45" as="geometry">
            <mxRectangle width="48" height="45" as="alternateBounds" />
          </mxGeometry>
        </mxCell>
        <mxCell id="XaADmC9wufVWzygDD67X-161" value="email" style="shape=partialRectangle;connectable=0;fillColor=none;top=0;left=0;bottom=0;right=0;align=left;spacingLeft=2;overflow=hidden;fontSize=11;" vertex="1" parent="XaADmC9wufVWzygDD67X-159">
          <mxGeometry x="48" width="276" height="45" as="geometry">
            <mxRectangle width="276" height="45" as="alternateBounds" />
          </mxGeometry>
        </mxCell>
        <mxCell id="XaADmC9wufVWzygDD67X-162" value="UK" style="shape=partialRectangle;connectable=0;fillColor=none;top=0;left=0;bottom=0;right=0;align=left;spacingLeft=2;overflow=hidden;fontSize=11;" vertex="1" parent="XaADmC9wufVWzygDD67X-159">
          <mxGeometry x="324" width="186" height="45" as="geometry">
            <mxRectangle width="186" height="45" as="alternateBounds" />
          </mxGeometry>
        </mxCell>
        <mxCell id="XaADmC9wufVWzygDD67X-163" style="shape=tableRow;horizontal=0;startSize=0;swimlaneHead=0;swimlaneBody=0;fillColor=none;collapsible=0;dropTarget=0;points=[[0,0.5],[1,0.5]];portConstraint=eastwest;top=0;left=0;right=0;bottom=0;" vertex="1" parent="XaADmC9wufVWzygDD67X-146">
          <mxGeometry y="205" width="510" height="45" as="geometry" />
        </mxCell>
        <mxCell id="XaADmC9wufVWzygDD67X-164" value="string" style="shape=partialRectangle;connectable=0;fillColor=none;top=0;left=0;bottom=0;right=0;align=left;spacingLeft=2;overflow=hidden;fontSize=11;" vertex="1" parent="XaADmC9wufVWzygDD67X-163">
          <mxGeometry width="48" height="45" as="geometry">
            <mxRectangle width="48" height="45" as="alternateBounds" />
          </mxGeometry>
        </mxCell>
        <mxCell id="XaADmC9wufVWzygDD67X-165" value="numberphone" style="shape=partialRectangle;connectable=0;fillColor=none;top=0;left=0;bottom=0;right=0;align=left;spacingLeft=2;overflow=hidden;fontSize=11;" vertex="1" parent="XaADmC9wufVWzygDD67X-163">
          <mxGeometry x="48" width="276" height="45" as="geometry">
            <mxRectangle width="276" height="45" as="alternateBounds" />
          </mxGeometry>
        </mxCell>
        <mxCell id="XaADmC9wufVWzygDD67X-166" value="UK" style="shape=partialRectangle;connectable=0;fillColor=none;top=0;left=0;bottom=0;right=0;align=left;spacingLeft=2;overflow=hidden;fontSize=11;" vertex="1" parent="XaADmC9wufVWzygDD67X-163">
          <mxGeometry x="324" width="186" height="45" as="geometry">
            <mxRectangle width="186" height="45" as="alternateBounds" />
          </mxGeometry>
        </mxCell>
        <mxCell id="XaADmC9wufVWzygDD67X-167" style="shape=tableRow;horizontal=0;startSize=0;swimlaneHead=0;swimlaneBody=0;fillColor=none;collapsible=0;dropTarget=0;points=[[0,0.5],[1,0.5]];portConstraint=eastwest;top=0;left=0;right=0;bottom=0;" vertex="1" parent="XaADmC9wufVWzygDD67X-146">
          <mxGeometry y="250" width="510" height="45" as="geometry" />
        </mxCell>
        <mxCell id="XaADmC9wufVWzygDD67X-168" value="string" style="shape=partialRectangle;connectable=0;fillColor=none;top=0;left=0;bottom=0;right=0;align=left;spacingLeft=2;overflow=hidden;fontSize=11;" vertex="1" parent="XaADmC9wufVWzygDD67X-167">
          <mxGeometry width="48" height="45" as="geometry">
            <mxRectangle width="48" height="45" as="alternateBounds" />
          </mxGeometry>
        </mxCell>
        <mxCell id="XaADmC9wufVWzygDD67X-169" value="profile_picture" style="shape=partialRectangle;connectable=0;fillColor=none;top=0;left=0;bottom=0;right=0;align=left;spacingLeft=2;overflow=hidden;fontSize=11;" vertex="1" parent="XaADmC9wufVWzygDD67X-167">
          <mxGeometry x="48" width="276" height="45" as="geometry">
            <mxRectangle width="276" height="45" as="alternateBounds" />
          </mxGeometry>
        </mxCell>
        <mxCell id="XaADmC9wufVWzygDD67X-170" value="" style="shape=partialRectangle;connectable=0;fillColor=none;top=0;left=0;bottom=0;right=0;align=left;spacingLeft=2;overflow=hidden;fontSize=11;" vertex="1" parent="XaADmC9wufVWzygDD67X-167">
          <mxGeometry x="324" width="186" height="45" as="geometry">
            <mxRectangle width="186" height="45" as="alternateBounds" />
          </mxGeometry>
        </mxCell>
        <mxCell id="XaADmC9wufVWzygDD67X-171" style="shape=tableRow;horizontal=0;startSize=0;swimlaneHead=0;swimlaneBody=0;fillColor=none;collapsible=0;dropTarget=0;points=[[0,0.5],[1,0.5]];portConstraint=eastwest;top=0;left=0;right=0;bottom=0;" vertex="1" parent="XaADmC9wufVWzygDD67X-146">
          <mxGeometry y="295" width="510" height="45" as="geometry" />
        </mxCell>
        <mxCell id="XaADmC9wufVWzygDD67X-172" value="string" style="shape=partialRectangle;connectable=0;fillColor=none;top=0;left=0;bottom=0;right=0;align=left;spacingLeft=2;overflow=hidden;fontSize=11;" vertex="1" parent="XaADmC9wufVWzygDD67X-171">
          <mxGeometry width="48" height="45" as="geometry">
            <mxRectangle width="48" height="45" as="alternateBounds" />
          </mxGeometry>
        </mxCell>
        <mxCell id="XaADmC9wufVWzygDD67X-173" value="password" style="shape=partialRectangle;connectable=0;fillColor=none;top=0;left=0;bottom=0;right=0;align=left;spacingLeft=2;overflow=hidden;fontSize=11;" vertex="1" parent="XaADmC9wufVWzygDD67X-171">
          <mxGeometry x="48" width="276" height="45" as="geometry">
            <mxRectangle width="276" height="45" as="alternateBounds" />
          </mxGeometry>
        </mxCell>
        <mxCell id="XaADmC9wufVWzygDD67X-174" value="" style="shape=partialRectangle;connectable=0;fillColor=none;top=0;left=0;bottom=0;right=0;align=left;spacingLeft=2;overflow=hidden;fontSize=11;" vertex="1" parent="XaADmC9wufVWzygDD67X-171">
          <mxGeometry x="324" width="186" height="45" as="geometry">
            <mxRectangle width="186" height="45" as="alternateBounds" />
          </mxGeometry>
        </mxCell>
        <mxCell id="XaADmC9wufVWzygDD67X-175" style="shape=tableRow;horizontal=0;startSize=0;swimlaneHead=0;swimlaneBody=0;fillColor=none;collapsible=0;dropTarget=0;points=[[0,0.5],[1,0.5]];portConstraint=eastwest;top=0;left=0;right=0;bottom=0;" vertex="1" parent="XaADmC9wufVWzygDD67X-146">
          <mxGeometry y="340" width="510" height="45" as="geometry" />
        </mxCell>
        <mxCell id="XaADmC9wufVWzygDD67X-176" value="string" style="shape=partialRectangle;connectable=0;fillColor=none;top=0;left=0;bottom=0;right=0;align=left;spacingLeft=2;overflow=hidden;fontSize=11;" vertex="1" parent="XaADmC9wufVWzygDD67X-175">
          <mxGeometry width="48" height="45" as="geometry">
            <mxRectangle width="48" height="45" as="alternateBounds" />
          </mxGeometry>
        </mxCell>
        <mxCell id="XaADmC9wufVWzygDD67X-177" value="role" style="shape=partialRectangle;connectable=0;fillColor=none;top=0;left=0;bottom=0;right=0;align=left;spacingLeft=2;overflow=hidden;fontSize=11;" vertex="1" parent="XaADmC9wufVWzygDD67X-175">
          <mxGeometry x="48" width="276" height="45" as="geometry">
            <mxRectangle width="276" height="45" as="alternateBounds" />
          </mxGeometry>
        </mxCell>
        <mxCell id="XaADmC9wufVWzygDD67X-178" value="" style="shape=partialRectangle;connectable=0;fillColor=none;top=0;left=0;bottom=0;right=0;align=left;spacingLeft=2;overflow=hidden;fontSize=11;" vertex="1" parent="XaADmC9wufVWzygDD67X-175">
          <mxGeometry x="324" width="186" height="45" as="geometry">
            <mxRectangle width="186" height="45" as="alternateBounds" />
          </mxGeometry>
        </mxCell>
        <mxCell id="XaADmC9wufVWzygDD67X-179" style="shape=tableRow;horizontal=0;startSize=0;swimlaneHead=0;swimlaneBody=0;fillColor=none;collapsible=0;dropTarget=0;points=[[0,0.5],[1,0.5]];portConstraint=eastwest;top=0;left=0;right=0;bottom=0;" vertex="1" parent="XaADmC9wufVWzygDD67X-146">
          <mxGeometry y="385" width="510" height="45" as="geometry" />
        </mxCell>
        <mxCell id="XaADmC9wufVWzygDD67X-180" value="datetime" style="shape=partialRectangle;connectable=0;fillColor=none;top=0;left=0;bottom=0;right=0;align=left;spacingLeft=2;overflow=hidden;fontSize=11;" vertex="1" parent="XaADmC9wufVWzygDD67X-179">
          <mxGeometry width="48" height="45" as="geometry">
            <mxRectangle width="48" height="45" as="alternateBounds" />
          </mxGeometry>
        </mxCell>
        <mxCell id="XaADmC9wufVWzygDD67X-181" value="created_at" style="shape=partialRectangle;connectable=0;fillColor=none;top=0;left=0;bottom=0;right=0;align=left;spacingLeft=2;overflow=hidden;fontSize=11;" vertex="1" parent="XaADmC9wufVWzygDD67X-179">
          <mxGeometry x="48" width="276" height="45" as="geometry">
            <mxRectangle width="276" height="45" as="alternateBounds" />
          </mxGeometry>
        </mxCell>
        <mxCell id="XaADmC9wufVWzygDD67X-182" value="" style="shape=partialRectangle;connectable=0;fillColor=none;top=0;left=0;bottom=0;right=0;align=left;spacingLeft=2;overflow=hidden;fontSize=11;" vertex="1" parent="XaADmC9wufVWzygDD67X-179">
          <mxGeometry x="324" width="186" height="45" as="geometry">
            <mxRectangle width="186" height="45" as="alternateBounds" />
          </mxGeometry>
        </mxCell>
        <mxCell id="XaADmC9wufVWzygDD67X-183" style="shape=tableRow;horizontal=0;startSize=0;swimlaneHead=0;swimlaneBody=0;fillColor=none;collapsible=0;dropTarget=0;points=[[0,0.5],[1,0.5]];portConstraint=eastwest;top=0;left=0;right=0;bottom=0;" vertex="1" parent="XaADmC9wufVWzygDD67X-146">
          <mxGeometry y="430" width="510" height="45" as="geometry" />
        </mxCell>
        <mxCell id="XaADmC9wufVWzygDD67X-184" value="int" style="shape=partialRectangle;connectable=0;fillColor=none;top=0;left=0;bottom=0;right=0;align=left;spacingLeft=2;overflow=hidden;fontSize=11;" vertex="1" parent="XaADmC9wufVWzygDD67X-183">
          <mxGeometry width="48" height="45" as="geometry">
            <mxRectangle width="48" height="45" as="alternateBounds" />
          </mxGeometry>
        </mxCell>
        <mxCell id="XaADmC9wufVWzygDD67X-185" value="competence_id" style="shape=partialRectangle;connectable=0;fillColor=none;top=0;left=0;bottom=0;right=0;align=left;spacingLeft=2;overflow=hidden;fontSize=11;" vertex="1" parent="XaADmC9wufVWzygDD67X-183">
          <mxGeometry x="48" width="276" height="45" as="geometry">
            <mxRectangle width="276" height="45" as="alternateBounds" />
          </mxGeometry>
        </mxCell>
        <mxCell id="XaADmC9wufVWzygDD67X-186" value="FK -&gt; COMPETENCES.competence_id" style="shape=partialRectangle;connectable=0;fillColor=none;top=0;left=0;bottom=0;right=0;align=left;spacingLeft=2;overflow=hidden;fontSize=11;" vertex="1" parent="XaADmC9wufVWzygDD67X-183">
          <mxGeometry x="324" width="186" height="45" as="geometry">
            <mxRectangle width="186" height="45" as="alternateBounds" />
          </mxGeometry>
        </mxCell>
        <mxCell id="XaADmC9wufVWzygDD67X-187" value="COMPETENCES" style="shape=table;startSize=25;container=1;collapsible=0;childLayout=tableLayout;fixedRows=1;rowLines=1;fontStyle=1;align=center;resizeLast=1;" vertex="1" parent="1">
          <mxGeometry x="738" y="20" width="251" height="129" as="geometry" />
        </mxCell>
        <mxCell id="XaADmC9wufVWzygDD67X-188" style="shape=tableRow;horizontal=0;startSize=0;swimlaneHead=0;swimlaneBody=0;fillColor=none;collapsible=0;dropTarget=0;points=[[0,0.5],[1,0.5]];portConstraint=eastwest;top=0;left=0;right=0;bottom=0;" vertex="1" parent="XaADmC9wufVWzygDD67X-187">
          <mxGeometry y="25" width="243" height="52" as="geometry" />
        </mxCell>
        <mxCell id="XaADmC9wufVWzygDD67X-189" value="int" style="shape=partialRectangle;connectable=0;fillColor=none;top=0;left=0;bottom=0;right=0;align=left;spacingLeft=2;overflow=hidden;fontSize=11;" vertex="1" parent="XaADmC9wufVWzygDD67X-188">
          <mxGeometry width="36" height="52" as="geometry">
            <mxRectangle width="36" height="52" as="alternateBounds" />
          </mxGeometry>
        </mxCell>
        <mxCell id="XaADmC9wufVWzygDD67X-190" value="competence_id" style="shape=partialRectangle;connectable=0;fillColor=none;top=0;left=0;bottom=0;right=0;align=left;spacingLeft=2;overflow=hidden;fontSize=11;" vertex="1" parent="XaADmC9wufVWzygDD67X-188">
          <mxGeometry x="36" width="195" height="52" as="geometry">
            <mxRectangle width="195" height="52" as="alternateBounds" />
          </mxGeometry>
        </mxCell>
        <mxCell id="XaADmC9wufVWzygDD67X-191" value="PK" style="shape=partialRectangle;connectable=0;fillColor=none;top=0;left=0;bottom=0;right=0;align=left;spacingLeft=2;overflow=hidden;fontSize=11;" vertex="1" parent="XaADmC9wufVWzygDD67X-188">
          <mxGeometry x="231" width="12" height="52" as="geometry">
            <mxRectangle width="12" height="52" as="alternateBounds" />
          </mxGeometry>
        </mxCell>
        <mxCell id="XaADmC9wufVWzygDD67X-192" style="shape=tableRow;horizontal=0;startSize=0;swimlaneHead=0;swimlaneBody=0;fillColor=none;collapsible=0;dropTarget=0;points=[[0,0.5],[1,0.5]];portConstraint=eastwest;top=0;left=0;right=0;bottom=0;" vertex="1" parent="XaADmC9wufVWzygDD67X-187">
          <mxGeometry y="77" width="243" height="52" as="geometry" />
        </mxCell>
        <mxCell id="XaADmC9wufVWzygDD67X-193" value="string" style="shape=partialRectangle;connectable=0;fillColor=none;top=0;left=0;bottom=0;right=0;align=left;spacingLeft=2;overflow=hidden;fontSize=11;" vertex="1" parent="XaADmC9wufVWzygDD67X-192">
          <mxGeometry width="36" height="52" as="geometry">
            <mxRectangle width="36" height="52" as="alternateBounds" />
          </mxGeometry>
        </mxCell>
        <mxCell id="XaADmC9wufVWzygDD67X-194" value="name" style="shape=partialRectangle;connectable=0;fillColor=none;top=0;left=0;bottom=0;right=0;align=left;spacingLeft=2;overflow=hidden;fontSize=11;" vertex="1" parent="XaADmC9wufVWzygDD67X-192">
          <mxGeometry x="36" width="195" height="52" as="geometry">
            <mxRectangle width="195" height="52" as="alternateBounds" />
          </mxGeometry>
        </mxCell>
        <mxCell id="XaADmC9wufVWzygDD67X-195" value="" style="shape=partialRectangle;connectable=0;fillColor=none;top=0;left=0;bottom=0;right=0;align=left;spacingLeft=2;overflow=hidden;fontSize=11;" vertex="1" parent="XaADmC9wufVWzygDD67X-192">
          <mxGeometry x="231" width="12" height="52" as="geometry">
            <mxRectangle width="12" height="52" as="alternateBounds" />
          </mxGeometry>
        </mxCell>
        <mxCell id="XaADmC9wufVWzygDD67X-196" value="CONSTRUCTION_SITES" style="shape=table;startSize=25;container=1;collapsible=0;childLayout=tableLayout;fixedRows=1;rowLines=1;fontStyle=1;align=center;resizeLast=1;" vertex="1" parent="1">
          <mxGeometry x="920" y="824" width="404" height="556" as="geometry" />
        </mxCell>
        <mxCell id="XaADmC9wufVWzygDD67X-197" style="shape=tableRow;horizontal=0;startSize=0;swimlaneHead=0;swimlaneBody=0;fillColor=none;collapsible=0;dropTarget=0;points=[[0,0.5],[1,0.5]];portConstraint=eastwest;top=0;left=0;right=0;bottom=0;" vertex="1" parent="XaADmC9wufVWzygDD67X-196">
          <mxGeometry y="25" width="404" height="44" as="geometry" />
        </mxCell>
        <mxCell id="XaADmC9wufVWzygDD67X-198" value="int" style="shape=partialRectangle;connectable=0;fillColor=none;top=0;left=0;bottom=0;right=0;align=left;spacingLeft=2;overflow=hidden;fontSize=11;" vertex="1" parent="XaADmC9wufVWzygDD67X-197">
          <mxGeometry width="36" height="44" as="geometry">
            <mxRectangle width="36" height="44" as="alternateBounds" />
          </mxGeometry>
        </mxCell>
        <mxCell id="XaADmC9wufVWzygDD67X-199" value="construction_site_id" style="shape=partialRectangle;connectable=0;fillColor=none;top=0;left=0;bottom=0;right=0;align=left;spacingLeft=2;overflow=hidden;fontSize=11;" vertex="1" parent="XaADmC9wufVWzygDD67X-197">
          <mxGeometry x="36" width="254" height="44" as="geometry">
            <mxRectangle width="254" height="44" as="alternateBounds" />
          </mxGeometry>
        </mxCell>
        <mxCell id="XaADmC9wufVWzygDD67X-200" value="PK" style="shape=partialRectangle;connectable=0;fillColor=none;top=0;left=0;bottom=0;right=0;align=left;spacingLeft=2;overflow=hidden;fontSize=11;" vertex="1" parent="XaADmC9wufVWzygDD67X-197">
          <mxGeometry x="290" width="114" height="44" as="geometry">
            <mxRectangle width="114" height="44" as="alternateBounds" />
          </mxGeometry>
        </mxCell>
        <mxCell id="XaADmC9wufVWzygDD67X-201" style="shape=tableRow;horizontal=0;startSize=0;swimlaneHead=0;swimlaneBody=0;fillColor=none;collapsible=0;dropTarget=0;points=[[0,0.5],[1,0.5]];portConstraint=eastwest;top=0;left=0;right=0;bottom=0;" vertex="1" parent="XaADmC9wufVWzygDD67X-196">
          <mxGeometry y="69" width="404" height="44" as="geometry" />
        </mxCell>
        <mxCell id="XaADmC9wufVWzygDD67X-202" value="string" style="shape=partialRectangle;connectable=0;fillColor=none;top=0;left=0;bottom=0;right=0;align=left;spacingLeft=2;overflow=hidden;fontSize=11;" vertex="1" parent="XaADmC9wufVWzygDD67X-201">
          <mxGeometry width="36" height="44" as="geometry">
            <mxRectangle width="36" height="44" as="alternateBounds" />
          </mxGeometry>
        </mxCell>
        <mxCell id="XaADmC9wufVWzygDD67X-203" value="name" style="shape=partialRectangle;connectable=0;fillColor=none;top=0;left=0;bottom=0;right=0;align=left;spacingLeft=2;overflow=hidden;fontSize=11;" vertex="1" parent="XaADmC9wufVWzygDD67X-201">
          <mxGeometry x="36" width="254" height="44" as="geometry">
            <mxRectangle width="254" height="44" as="alternateBounds" />
          </mxGeometry>
        </mxCell>
        <mxCell id="XaADmC9wufVWzygDD67X-204" value="" style="shape=partialRectangle;connectable=0;fillColor=none;top=0;left=0;bottom=0;right=0;align=left;spacingLeft=2;overflow=hidden;fontSize=11;" vertex="1" parent="XaADmC9wufVWzygDD67X-201">
          <mxGeometry x="290" width="114" height="44" as="geometry">
            <mxRectangle width="114" height="44" as="alternateBounds" />
          </mxGeometry>
        </mxCell>
        <mxCell id="XaADmC9wufVWzygDD67X-205" style="shape=tableRow;horizontal=0;startSize=0;swimlaneHead=0;swimlaneBody=0;fillColor=none;collapsible=0;dropTarget=0;points=[[0,0.5],[1,0.5]];portConstraint=eastwest;top=0;left=0;right=0;bottom=0;" vertex="1" parent="XaADmC9wufVWzygDD67X-196">
          <mxGeometry y="113" width="404" height="44" as="geometry" />
        </mxCell>
        <mxCell id="XaADmC9wufVWzygDD67X-206" value="string" style="shape=partialRectangle;connectable=0;fillColor=none;top=0;left=0;bottom=0;right=0;align=left;spacingLeft=2;overflow=hidden;fontSize=11;" vertex="1" parent="XaADmC9wufVWzygDD67X-205">
          <mxGeometry width="36" height="44" as="geometry">
            <mxRectangle width="36" height="44" as="alternateBounds" />
          </mxGeometry>
        </mxCell>
        <mxCell id="XaADmC9wufVWzygDD67X-207" value="state" style="shape=partialRectangle;connectable=0;fillColor=none;top=0;left=0;bottom=0;right=0;align=left;spacingLeft=2;overflow=hidden;fontSize=11;" vertex="1" parent="XaADmC9wufVWzygDD67X-205">
          <mxGeometry x="36" width="254" height="44" as="geometry">
            <mxRectangle width="254" height="44" as="alternateBounds" />
          </mxGeometry>
        </mxCell>
        <mxCell id="XaADmC9wufVWzygDD67X-208" value="" style="shape=partialRectangle;connectable=0;fillColor=none;top=0;left=0;bottom=0;right=0;align=left;spacingLeft=2;overflow=hidden;fontSize=11;" vertex="1" parent="XaADmC9wufVWzygDD67X-205">
          <mxGeometry x="290" width="114" height="44" as="geometry">
            <mxRectangle width="114" height="44" as="alternateBounds" />
          </mxGeometry>
        </mxCell>
        <mxCell id="XaADmC9wufVWzygDD67X-209" style="shape=tableRow;horizontal=0;startSize=0;swimlaneHead=0;swimlaneBody=0;fillColor=none;collapsible=0;dropTarget=0;points=[[0,0.5],[1,0.5]];portConstraint=eastwest;top=0;left=0;right=0;bottom=0;" vertex="1" parent="XaADmC9wufVWzygDD67X-196">
          <mxGeometry y="157" width="404" height="44" as="geometry" />
        </mxCell>
        <mxCell id="XaADmC9wufVWzygDD67X-210" value="string" style="shape=partialRectangle;connectable=0;fillColor=none;top=0;left=0;bottom=0;right=0;align=left;spacingLeft=2;overflow=hidden;fontSize=11;" vertex="1" parent="XaADmC9wufVWzygDD67X-209">
          <mxGeometry width="36" height="44" as="geometry">
            <mxRectangle width="36" height="44" as="alternateBounds" />
          </mxGeometry>
        </mxCell>
        <mxCell id="XaADmC9wufVWzygDD67X-211" value="description" style="shape=partialRectangle;connectable=0;fillColor=none;top=0;left=0;bottom=0;right=0;align=left;spacingLeft=2;overflow=hidden;fontSize=11;" vertex="1" parent="XaADmC9wufVWzygDD67X-209">
          <mxGeometry x="36" width="254" height="44" as="geometry">
            <mxRectangle width="254" height="44" as="alternateBounds" />
          </mxGeometry>
        </mxCell>
        <mxCell id="XaADmC9wufVWzygDD67X-212" value="" style="shape=partialRectangle;connectable=0;fillColor=none;top=0;left=0;bottom=0;right=0;align=left;spacingLeft=2;overflow=hidden;fontSize=11;" vertex="1" parent="XaADmC9wufVWzygDD67X-209">
          <mxGeometry x="290" width="114" height="44" as="geometry">
            <mxRectangle width="114" height="44" as="alternateBounds" />
          </mxGeometry>
        </mxCell>
        <mxCell id="XaADmC9wufVWzygDD67X-213" style="shape=tableRow;horizontal=0;startSize=0;swimlaneHead=0;swimlaneBody=0;fillColor=none;collapsible=0;dropTarget=0;points=[[0,0.5],[1,0.5]];portConstraint=eastwest;top=0;left=0;right=0;bottom=0;" vertex="1" parent="XaADmC9wufVWzygDD67X-196">
          <mxGeometry y="201" width="404" height="44" as="geometry" />
        </mxCell>
        <mxCell id="XaADmC9wufVWzygDD67X-214" value="string" style="shape=partialRectangle;connectable=0;fillColor=none;top=0;left=0;bottom=0;right=0;align=left;spacingLeft=2;overflow=hidden;fontSize=11;" vertex="1" parent="XaADmC9wufVWzygDD67X-213">
          <mxGeometry width="36" height="44" as="geometry">
            <mxRectangle width="36" height="44" as="alternateBounds" />
          </mxGeometry>
        </mxCell>
        <mxCell id="XaADmC9wufVWzygDD67X-215" value="adresse" style="shape=partialRectangle;connectable=0;fillColor=none;top=0;left=0;bottom=0;right=0;align=left;spacingLeft=2;overflow=hidden;fontSize=11;" vertex="1" parent="XaADmC9wufVWzygDD67X-213">
          <mxGeometry x="36" width="254" height="44" as="geometry">
            <mxRectangle width="254" height="44" as="alternateBounds" />
          </mxGeometry>
        </mxCell>
        <mxCell id="XaADmC9wufVWzygDD67X-216" value="" style="shape=partialRectangle;connectable=0;fillColor=none;top=0;left=0;bottom=0;right=0;align=left;spacingLeft=2;overflow=hidden;fontSize=11;" vertex="1" parent="XaADmC9wufVWzygDD67X-213">
          <mxGeometry x="290" width="114" height="44" as="geometry">
            <mxRectangle width="114" height="44" as="alternateBounds" />
          </mxGeometry>
        </mxCell>
        <mxCell id="XaADmC9wufVWzygDD67X-217" style="shape=tableRow;horizontal=0;startSize=0;swimlaneHead=0;swimlaneBody=0;fillColor=none;collapsible=0;dropTarget=0;points=[[0,0.5],[1,0.5]];portConstraint=eastwest;top=0;left=0;right=0;bottom=0;" vertex="1" parent="XaADmC9wufVWzygDD67X-196">
          <mxGeometry y="245" width="404" height="44" as="geometry" />
        </mxCell>
        <mxCell id="XaADmC9wufVWzygDD67X-218" value="date" style="shape=partialRectangle;connectable=0;fillColor=none;top=0;left=0;bottom=0;right=0;align=left;spacingLeft=2;overflow=hidden;fontSize=11;" vertex="1" parent="XaADmC9wufVWzygDD67X-217">
          <mxGeometry width="36" height="44" as="geometry">
            <mxRectangle width="36" height="44" as="alternateBounds" />
          </mxGeometry>
        </mxCell>
        <mxCell id="XaADmC9wufVWzygDD67X-219" value="start_date" style="shape=partialRectangle;connectable=0;fillColor=none;top=0;left=0;bottom=0;right=0;align=left;spacingLeft=2;overflow=hidden;fontSize=11;" vertex="1" parent="XaADmC9wufVWzygDD67X-217">
          <mxGeometry x="36" width="254" height="44" as="geometry">
            <mxRectangle width="254" height="44" as="alternateBounds" />
          </mxGeometry>
        </mxCell>
        <mxCell id="XaADmC9wufVWzygDD67X-220" value="" style="shape=partialRectangle;connectable=0;fillColor=none;top=0;left=0;bottom=0;right=0;align=left;spacingLeft=2;overflow=hidden;fontSize=11;" vertex="1" parent="XaADmC9wufVWzygDD67X-217">
          <mxGeometry x="290" width="114" height="44" as="geometry">
            <mxRectangle width="114" height="44" as="alternateBounds" />
          </mxGeometry>
        </mxCell>
        <mxCell id="XaADmC9wufVWzygDD67X-221" style="shape=tableRow;horizontal=0;startSize=0;swimlaneHead=0;swimlaneBody=0;fillColor=none;collapsible=0;dropTarget=0;points=[[0,0.5],[1,0.5]];portConstraint=eastwest;top=0;left=0;right=0;bottom=0;" vertex="1" parent="XaADmC9wufVWzygDD67X-196">
          <mxGeometry y="289" width="404" height="44" as="geometry" />
        </mxCell>
        <mxCell id="XaADmC9wufVWzygDD67X-222" value="date" style="shape=partialRectangle;connectable=0;fillColor=none;top=0;left=0;bottom=0;right=0;align=left;spacingLeft=2;overflow=hidden;fontSize=11;" vertex="1" parent="XaADmC9wufVWzygDD67X-221">
          <mxGeometry width="36" height="44" as="geometry">
            <mxRectangle width="36" height="44" as="alternateBounds" />
          </mxGeometry>
        </mxCell>
        <mxCell id="XaADmC9wufVWzygDD67X-223" value="end_date" style="shape=partialRectangle;connectable=0;fillColor=none;top=0;left=0;bottom=0;right=0;align=left;spacingLeft=2;overflow=hidden;fontSize=11;" vertex="1" parent="XaADmC9wufVWzygDD67X-221">
          <mxGeometry x="36" width="254" height="44" as="geometry">
            <mxRectangle width="254" height="44" as="alternateBounds" />
          </mxGeometry>
        </mxCell>
        <mxCell id="XaADmC9wufVWzygDD67X-224" value="" style="shape=partialRectangle;connectable=0;fillColor=none;top=0;left=0;bottom=0;right=0;align=left;spacingLeft=2;overflow=hidden;fontSize=11;" vertex="1" parent="XaADmC9wufVWzygDD67X-221">
          <mxGeometry x="290" width="114" height="44" as="geometry">
            <mxRectangle width="114" height="44" as="alternateBounds" />
          </mxGeometry>
        </mxCell>
        <mxCell id="XaADmC9wufVWzygDD67X-225" style="shape=tableRow;horizontal=0;startSize=0;swimlaneHead=0;swimlaneBody=0;fillColor=none;collapsible=0;dropTarget=0;points=[[0,0.5],[1,0.5]];portConstraint=eastwest;top=0;left=0;right=0;bottom=0;" vertex="1" parent="XaADmC9wufVWzygDD67X-196">
          <mxGeometry y="333" width="404" height="44" as="geometry" />
        </mxCell>
        <mxCell id="XaADmC9wufVWzygDD67X-226" value="time" style="shape=partialRectangle;connectable=0;fillColor=none;top=0;left=0;bottom=0;right=0;align=left;spacingLeft=2;overflow=hidden;fontSize=11;" vertex="1" parent="XaADmC9wufVWzygDD67X-225">
          <mxGeometry width="36" height="44" as="geometry">
            <mxRectangle width="36" height="44" as="alternateBounds" />
          </mxGeometry>
        </mxCell>
        <mxCell id="XaADmC9wufVWzygDD67X-227" value="open_time" style="shape=partialRectangle;connectable=0;fillColor=none;top=0;left=0;bottom=0;right=0;align=left;spacingLeft=2;overflow=hidden;fontSize=11;" vertex="1" parent="XaADmC9wufVWzygDD67X-225">
          <mxGeometry x="36" width="254" height="44" as="geometry">
            <mxRectangle width="254" height="44" as="alternateBounds" />
          </mxGeometry>
        </mxCell>
        <mxCell id="XaADmC9wufVWzygDD67X-228" value="" style="shape=partialRectangle;connectable=0;fillColor=none;top=0;left=0;bottom=0;right=0;align=left;spacingLeft=2;overflow=hidden;fontSize=11;" vertex="1" parent="XaADmC9wufVWzygDD67X-225">
          <mxGeometry x="290" width="114" height="44" as="geometry">
            <mxRectangle width="114" height="44" as="alternateBounds" />
          </mxGeometry>
        </mxCell>
        <mxCell id="XaADmC9wufVWzygDD67X-229" style="shape=tableRow;horizontal=0;startSize=0;swimlaneHead=0;swimlaneBody=0;fillColor=none;collapsible=0;dropTarget=0;points=[[0,0.5],[1,0.5]];portConstraint=eastwest;top=0;left=0;right=0;bottom=0;" vertex="1" parent="XaADmC9wufVWzygDD67X-196">
          <mxGeometry y="377" width="404" height="44" as="geometry" />
        </mxCell>
        <mxCell id="XaADmC9wufVWzygDD67X-230" value="time" style="shape=partialRectangle;connectable=0;fillColor=none;top=0;left=0;bottom=0;right=0;align=left;spacingLeft=2;overflow=hidden;fontSize=11;" vertex="1" parent="XaADmC9wufVWzygDD67X-229">
          <mxGeometry width="36" height="44" as="geometry">
            <mxRectangle width="36" height="44" as="alternateBounds" />
          </mxGeometry>
        </mxCell>
        <mxCell id="XaADmC9wufVWzygDD67X-231" value="end_time" style="shape=partialRectangle;connectable=0;fillColor=none;top=0;left=0;bottom=0;right=0;align=left;spacingLeft=2;overflow=hidden;fontSize=11;" vertex="1" parent="XaADmC9wufVWzygDD67X-229">
          <mxGeometry x="36" width="254" height="44" as="geometry">
            <mxRectangle width="254" height="44" as="alternateBounds" />
          </mxGeometry>
        </mxCell>
        <mxCell id="XaADmC9wufVWzygDD67X-232" value="" style="shape=partialRectangle;connectable=0;fillColor=none;top=0;left=0;bottom=0;right=0;align=left;spacingLeft=2;overflow=hidden;fontSize=11;" vertex="1" parent="XaADmC9wufVWzygDD67X-229">
          <mxGeometry x="290" width="114" height="44" as="geometry">
            <mxRectangle width="114" height="44" as="alternateBounds" />
          </mxGeometry>
        </mxCell>
        <mxCell id="XaADmC9wufVWzygDD67X-233" style="shape=tableRow;horizontal=0;startSize=0;swimlaneHead=0;swimlaneBody=0;fillColor=none;collapsible=0;dropTarget=0;points=[[0,0.5],[1,0.5]];portConstraint=eastwest;top=0;left=0;right=0;bottom=0;" vertex="1" parent="XaADmC9wufVWzygDD67X-196">
          <mxGeometry y="421" width="404" height="44" as="geometry" />
        </mxCell>
        <mxCell id="XaADmC9wufVWzygDD67X-234" value="date" style="shape=partialRectangle;connectable=0;fillColor=none;top=0;left=0;bottom=0;right=0;align=left;spacingLeft=2;overflow=hidden;fontSize=11;" vertex="1" parent="XaADmC9wufVWzygDD67X-233">
          <mxGeometry width="36" height="44" as="geometry">
            <mxRectangle width="36" height="44" as="alternateBounds" />
          </mxGeometry>
        </mxCell>
        <mxCell id="XaADmC9wufVWzygDD67X-235" value="date_creation" style="shape=partialRectangle;connectable=0;fillColor=none;top=0;left=0;bottom=0;right=0;align=left;spacingLeft=2;overflow=hidden;fontSize=11;" vertex="1" parent="XaADmC9wufVWzygDD67X-233">
          <mxGeometry x="36" width="254" height="44" as="geometry">
            <mxRectangle width="254" height="44" as="alternateBounds" />
          </mxGeometry>
        </mxCell>
        <mxCell id="XaADmC9wufVWzygDD67X-236" value="" style="shape=partialRectangle;connectable=0;fillColor=none;top=0;left=0;bottom=0;right=0;align=left;spacingLeft=2;overflow=hidden;fontSize=11;" vertex="1" parent="XaADmC9wufVWzygDD67X-233">
          <mxGeometry x="290" width="114" height="44" as="geometry">
            <mxRectangle width="114" height="44" as="alternateBounds" />
          </mxGeometry>
        </mxCell>
        <mxCell id="XaADmC9wufVWzygDD67X-237" style="shape=tableRow;horizontal=0;startSize=0;swimlaneHead=0;swimlaneBody=0;fillColor=none;collapsible=0;dropTarget=0;points=[[0,0.5],[1,0.5]];portConstraint=eastwest;top=0;left=0;right=0;bottom=0;" vertex="1" parent="XaADmC9wufVWzygDD67X-196">
          <mxGeometry y="465" width="404" height="44" as="geometry" />
        </mxCell>
        <mxCell id="XaADmC9wufVWzygDD67X-238" value="string" style="shape=partialRectangle;connectable=0;fillColor=none;top=0;left=0;bottom=0;right=0;align=left;spacingLeft=2;overflow=hidden;fontSize=11;" vertex="1" parent="XaADmC9wufVWzygDD67X-237">
          <mxGeometry width="36" height="44" as="geometry">
            <mxRectangle width="36" height="44" as="alternateBounds" />
          </mxGeometry>
        </mxCell>
        <mxCell id="XaADmC9wufVWzygDD67X-239" value="image_url" style="shape=partialRectangle;connectable=0;fillColor=none;top=0;left=0;bottom=0;right=0;align=left;spacingLeft=2;overflow=hidden;fontSize=11;" vertex="1" parent="XaADmC9wufVWzygDD67X-237">
          <mxGeometry x="36" width="254" height="44" as="geometry">
            <mxRectangle width="254" height="44" as="alternateBounds" />
          </mxGeometry>
        </mxCell>
        <mxCell id="XaADmC9wufVWzygDD67X-240" value="" style="shape=partialRectangle;connectable=0;fillColor=none;top=0;left=0;bottom=0;right=0;align=left;spacingLeft=2;overflow=hidden;fontSize=11;" vertex="1" parent="XaADmC9wufVWzygDD67X-237">
          <mxGeometry x="290" width="114" height="44" as="geometry">
            <mxRectangle width="114" height="44" as="alternateBounds" />
          </mxGeometry>
        </mxCell>
        <mxCell id="XaADmC9wufVWzygDD67X-241" style="shape=tableRow;horizontal=0;startSize=0;swimlaneHead=0;swimlaneBody=0;fillColor=none;collapsible=0;dropTarget=0;points=[[0,0.5],[1,0.5]];portConstraint=eastwest;top=0;left=0;right=0;bottom=0;" vertex="1" parent="XaADmC9wufVWzygDD67X-196">
          <mxGeometry y="509" width="404" height="44" as="geometry" />
        </mxCell>
        <mxCell id="XaADmC9wufVWzygDD67X-242" value="int" style="shape=partialRectangle;connectable=0;fillColor=none;top=0;left=0;bottom=0;right=0;align=left;spacingLeft=2;overflow=hidden;fontSize=11;" vertex="1" parent="XaADmC9wufVWzygDD67X-241">
          <mxGeometry width="36" height="44" as="geometry">
            <mxRectangle width="36" height="44" as="alternateBounds" />
          </mxGeometry>
        </mxCell>
        <mxCell id="XaADmC9wufVWzygDD67X-243" value="chef_de_projet_id" style="shape=partialRectangle;connectable=0;fillColor=none;top=0;left=0;bottom=0;right=0;align=left;spacingLeft=2;overflow=hidden;fontSize=11;" vertex="1" parent="XaADmC9wufVWzygDD67X-241">
          <mxGeometry x="36" width="254" height="44" as="geometry">
            <mxRectangle width="254" height="44" as="alternateBounds" />
          </mxGeometry>
        </mxCell>
        <mxCell id="XaADmC9wufVWzygDD67X-244" value="FK -&gt; USERS.user_id" style="shape=partialRectangle;connectable=0;fillColor=none;top=0;left=0;bottom=0;right=0;align=left;spacingLeft=2;overflow=hidden;fontSize=11;" vertex="1" parent="XaADmC9wufVWzygDD67X-241">
          <mxGeometry x="290" width="114" height="44" as="geometry">
            <mxRectangle width="114" height="44" as="alternateBounds" />
          </mxGeometry>
        </mxCell>
        <mxCell id="XaADmC9wufVWzygDD67X-245" value="TASKS" style="shape=table;startSize=25;container=1;collapsible=0;childLayout=tableLayout;fixedRows=1;rowLines=1;fontStyle=1;align=center;resizeLast=1;" vertex="1" parent="1">
          <mxGeometry x="1166" y="1482" width="636" height="430" as="geometry" />
        </mxCell>
        <mxCell id="XaADmC9wufVWzygDD67X-246" style="shape=tableRow;horizontal=0;startSize=0;swimlaneHead=0;swimlaneBody=0;fillColor=none;collapsible=0;dropTarget=0;points=[[0,0.5],[1,0.5]];portConstraint=eastwest;top=0;left=0;right=0;bottom=0;" vertex="1" parent="XaADmC9wufVWzygDD67X-245">
          <mxGeometry y="25" width="636" height="45" as="geometry" />
        </mxCell>
        <mxCell id="XaADmC9wufVWzygDD67X-247" value="int" style="shape=partialRectangle;connectable=0;fillColor=none;top=0;left=0;bottom=0;right=0;align=left;spacingLeft=2;overflow=hidden;fontSize=11;" vertex="1" parent="XaADmC9wufVWzygDD67X-246">
          <mxGeometry width="48" height="45" as="geometry">
            <mxRectangle width="48" height="45" as="alternateBounds" />
          </mxGeometry>
        </mxCell>
        <mxCell id="XaADmC9wufVWzygDD67X-248" value="task_id" style="shape=partialRectangle;connectable=0;fillColor=none;top=0;left=0;bottom=0;right=0;align=left;spacingLeft=2;overflow=hidden;fontSize=11;" vertex="1" parent="XaADmC9wufVWzygDD67X-246">
          <mxGeometry x="48" width="318" height="45" as="geometry">
            <mxRectangle width="318" height="45" as="alternateBounds" />
          </mxGeometry>
        </mxCell>
        <mxCell id="XaADmC9wufVWzygDD67X-249" value="PK" style="shape=partialRectangle;connectable=0;fillColor=none;top=0;left=0;bottom=0;right=0;align=left;spacingLeft=2;overflow=hidden;fontSize=11;" vertex="1" parent="XaADmC9wufVWzygDD67X-246">
          <mxGeometry x="366" width="270" height="45" as="geometry">
            <mxRectangle width="270" height="45" as="alternateBounds" />
          </mxGeometry>
        </mxCell>
        <mxCell id="XaADmC9wufVWzygDD67X-250" style="shape=tableRow;horizontal=0;startSize=0;swimlaneHead=0;swimlaneBody=0;fillColor=none;collapsible=0;dropTarget=0;points=[[0,0.5],[1,0.5]];portConstraint=eastwest;top=0;left=0;right=0;bottom=0;" vertex="1" parent="XaADmC9wufVWzygDD67X-245">
          <mxGeometry y="70" width="636" height="45" as="geometry" />
        </mxCell>
        <mxCell id="XaADmC9wufVWzygDD67X-251" value="string" style="shape=partialRectangle;connectable=0;fillColor=none;top=0;left=0;bottom=0;right=0;align=left;spacingLeft=2;overflow=hidden;fontSize=11;" vertex="1" parent="XaADmC9wufVWzygDD67X-250">
          <mxGeometry width="48" height="45" as="geometry">
            <mxRectangle width="48" height="45" as="alternateBounds" />
          </mxGeometry>
        </mxCell>
        <mxCell id="XaADmC9wufVWzygDD67X-252" value="name" style="shape=partialRectangle;connectable=0;fillColor=none;top=0;left=0;bottom=0;right=0;align=left;spacingLeft=2;overflow=hidden;fontSize=11;" vertex="1" parent="XaADmC9wufVWzygDD67X-250">
          <mxGeometry x="48" width="318" height="45" as="geometry">
            <mxRectangle width="318" height="45" as="alternateBounds" />
          </mxGeometry>
        </mxCell>
        <mxCell id="XaADmC9wufVWzygDD67X-253" value="" style="shape=partialRectangle;connectable=0;fillColor=none;top=0;left=0;bottom=0;right=0;align=left;spacingLeft=2;overflow=hidden;fontSize=11;" vertex="1" parent="XaADmC9wufVWzygDD67X-250">
          <mxGeometry x="366" width="270" height="45" as="geometry">
            <mxRectangle width="270" height="45" as="alternateBounds" />
          </mxGeometry>
        </mxCell>
        <mxCell id="XaADmC9wufVWzygDD67X-254" style="shape=tableRow;horizontal=0;startSize=0;swimlaneHead=0;swimlaneBody=0;fillColor=none;collapsible=0;dropTarget=0;points=[[0,0.5],[1,0.5]];portConstraint=eastwest;top=0;left=0;right=0;bottom=0;" vertex="1" parent="XaADmC9wufVWzygDD67X-245">
          <mxGeometry y="115" width="636" height="45" as="geometry" />
        </mxCell>
        <mxCell id="XaADmC9wufVWzygDD67X-255" value="string" style="shape=partialRectangle;connectable=0;fillColor=none;top=0;left=0;bottom=0;right=0;align=left;spacingLeft=2;overflow=hidden;fontSize=11;" vertex="1" parent="XaADmC9wufVWzygDD67X-254">
          <mxGeometry width="48" height="45" as="geometry">
            <mxRectangle width="48" height="45" as="alternateBounds" />
          </mxGeometry>
        </mxCell>
        <mxCell id="XaADmC9wufVWzygDD67X-256" value="description" style="shape=partialRectangle;connectable=0;fillColor=none;top=0;left=0;bottom=0;right=0;align=left;spacingLeft=2;overflow=hidden;fontSize=11;" vertex="1" parent="XaADmC9wufVWzygDD67X-254">
          <mxGeometry x="48" width="318" height="45" as="geometry">
            <mxRectangle width="318" height="45" as="alternateBounds" />
          </mxGeometry>
        </mxCell>
        <mxCell id="XaADmC9wufVWzygDD67X-257" value="" style="shape=partialRectangle;connectable=0;fillColor=none;top=0;left=0;bottom=0;right=0;align=left;spacingLeft=2;overflow=hidden;fontSize=11;" vertex="1" parent="XaADmC9wufVWzygDD67X-254">
          <mxGeometry x="366" width="270" height="45" as="geometry">
            <mxRectangle width="270" height="45" as="alternateBounds" />
          </mxGeometry>
        </mxCell>
        <mxCell id="XaADmC9wufVWzygDD67X-258" style="shape=tableRow;horizontal=0;startSize=0;swimlaneHead=0;swimlaneBody=0;fillColor=none;collapsible=0;dropTarget=0;points=[[0,0.5],[1,0.5]];portConstraint=eastwest;top=0;left=0;right=0;bottom=0;" vertex="1" parent="XaADmC9wufVWzygDD67X-245">
          <mxGeometry y="160" width="636" height="45" as="geometry" />
        </mxCell>
        <mxCell id="XaADmC9wufVWzygDD67X-259" value="string" style="shape=partialRectangle;connectable=0;fillColor=none;top=0;left=0;bottom=0;right=0;align=left;spacingLeft=2;overflow=hidden;fontSize=11;" vertex="1" parent="XaADmC9wufVWzygDD67X-258">
          <mxGeometry width="48" height="45" as="geometry">
            <mxRectangle width="48" height="45" as="alternateBounds" />
          </mxGeometry>
        </mxCell>
        <mxCell id="XaADmC9wufVWzygDD67X-260" value="status" style="shape=partialRectangle;connectable=0;fillColor=none;top=0;left=0;bottom=0;right=0;align=left;spacingLeft=2;overflow=hidden;fontSize=11;" vertex="1" parent="XaADmC9wufVWzygDD67X-258">
          <mxGeometry x="48" width="318" height="45" as="geometry">
            <mxRectangle width="318" height="45" as="alternateBounds" />
          </mxGeometry>
        </mxCell>
        <mxCell id="XaADmC9wufVWzygDD67X-261" value="" style="shape=partialRectangle;connectable=0;fillColor=none;top=0;left=0;bottom=0;right=0;align=left;spacingLeft=2;overflow=hidden;fontSize=11;" vertex="1" parent="XaADmC9wufVWzygDD67X-258">
          <mxGeometry x="366" width="270" height="45" as="geometry">
            <mxRectangle width="270" height="45" as="alternateBounds" />
          </mxGeometry>
        </mxCell>
        <mxCell id="XaADmC9wufVWzygDD67X-262" style="shape=tableRow;horizontal=0;startSize=0;swimlaneHead=0;swimlaneBody=0;fillColor=none;collapsible=0;dropTarget=0;points=[[0,0.5],[1,0.5]];portConstraint=eastwest;top=0;left=0;right=0;bottom=0;" vertex="1" parent="XaADmC9wufVWzygDD67X-245">
          <mxGeometry y="205" width="636" height="45" as="geometry" />
        </mxCell>
        <mxCell id="XaADmC9wufVWzygDD67X-263" value="datetime" style="shape=partialRectangle;connectable=0;fillColor=none;top=0;left=0;bottom=0;right=0;align=left;spacingLeft=2;overflow=hidden;fontSize=11;" vertex="1" parent="XaADmC9wufVWzygDD67X-262">
          <mxGeometry width="48" height="45" as="geometry">
            <mxRectangle width="48" height="45" as="alternateBounds" />
          </mxGeometry>
        </mxCell>
        <mxCell id="XaADmC9wufVWzygDD67X-264" value="creation_date" style="shape=partialRectangle;connectable=0;fillColor=none;top=0;left=0;bottom=0;right=0;align=left;spacingLeft=2;overflow=hidden;fontSize=11;" vertex="1" parent="XaADmC9wufVWzygDD67X-262">
          <mxGeometry x="48" width="318" height="45" as="geometry">
            <mxRectangle width="318" height="45" as="alternateBounds" />
          </mxGeometry>
        </mxCell>
        <mxCell id="XaADmC9wufVWzygDD67X-265" value="" style="shape=partialRectangle;connectable=0;fillColor=none;top=0;left=0;bottom=0;right=0;align=left;spacingLeft=2;overflow=hidden;fontSize=11;" vertex="1" parent="XaADmC9wufVWzygDD67X-262">
          <mxGeometry x="366" width="270" height="45" as="geometry">
            <mxRectangle width="270" height="45" as="alternateBounds" />
          </mxGeometry>
        </mxCell>
        <mxCell id="XaADmC9wufVWzygDD67X-266" style="shape=tableRow;horizontal=0;startSize=0;swimlaneHead=0;swimlaneBody=0;fillColor=none;collapsible=0;dropTarget=0;points=[[0,0.5],[1,0.5]];portConstraint=eastwest;top=0;left=0;right=0;bottom=0;" vertex="1" parent="XaADmC9wufVWzygDD67X-245">
          <mxGeometry y="250" width="636" height="45" as="geometry" />
        </mxCell>
        <mxCell id="XaADmC9wufVWzygDD67X-267" value="datetime" style="shape=partialRectangle;connectable=0;fillColor=none;top=0;left=0;bottom=0;right=0;align=left;spacingLeft=2;overflow=hidden;fontSize=11;" vertex="1" parent="XaADmC9wufVWzygDD67X-266">
          <mxGeometry width="48" height="45" as="geometry">
            <mxRectangle width="48" height="45" as="alternateBounds" />
          </mxGeometry>
        </mxCell>
        <mxCell id="XaADmC9wufVWzygDD67X-268" value="start_date" style="shape=partialRectangle;connectable=0;fillColor=none;top=0;left=0;bottom=0;right=0;align=left;spacingLeft=2;overflow=hidden;fontSize=11;" vertex="1" parent="XaADmC9wufVWzygDD67X-266">
          <mxGeometry x="48" width="318" height="45" as="geometry">
            <mxRectangle width="318" height="45" as="alternateBounds" />
          </mxGeometry>
        </mxCell>
        <mxCell id="XaADmC9wufVWzygDD67X-269" value="" style="shape=partialRectangle;connectable=0;fillColor=none;top=0;left=0;bottom=0;right=0;align=left;spacingLeft=2;overflow=hidden;fontSize=11;" vertex="1" parent="XaADmC9wufVWzygDD67X-266">
          <mxGeometry x="366" width="270" height="45" as="geometry">
            <mxRectangle width="270" height="45" as="alternateBounds" />
          </mxGeometry>
        </mxCell>
        <mxCell id="XaADmC9wufVWzygDD67X-270" style="shape=tableRow;horizontal=0;startSize=0;swimlaneHead=0;swimlaneBody=0;fillColor=none;collapsible=0;dropTarget=0;points=[[0,0.5],[1,0.5]];portConstraint=eastwest;top=0;left=0;right=0;bottom=0;" vertex="1" parent="XaADmC9wufVWzygDD67X-245">
          <mxGeometry y="295" width="636" height="45" as="geometry" />
        </mxCell>
        <mxCell id="XaADmC9wufVWzygDD67X-271" value="datetime" style="shape=partialRectangle;connectable=0;fillColor=none;top=0;left=0;bottom=0;right=0;align=left;spacingLeft=2;overflow=hidden;fontSize=11;" vertex="1" parent="XaADmC9wufVWzygDD67X-270">
          <mxGeometry width="48" height="45" as="geometry">
            <mxRectangle width="48" height="45" as="alternateBounds" />
          </mxGeometry>
        </mxCell>
        <mxCell id="XaADmC9wufVWzygDD67X-272" value="end_date" style="shape=partialRectangle;connectable=0;fillColor=none;top=0;left=0;bottom=0;right=0;align=left;spacingLeft=2;overflow=hidden;fontSize=11;" vertex="1" parent="XaADmC9wufVWzygDD67X-270">
          <mxGeometry x="48" width="318" height="45" as="geometry">
            <mxRectangle width="318" height="45" as="alternateBounds" />
          </mxGeometry>
        </mxCell>
        <mxCell id="XaADmC9wufVWzygDD67X-273" value="" style="shape=partialRectangle;connectable=0;fillColor=none;top=0;left=0;bottom=0;right=0;align=left;spacingLeft=2;overflow=hidden;fontSize=11;" vertex="1" parent="XaADmC9wufVWzygDD67X-270">
          <mxGeometry x="366" width="270" height="45" as="geometry">
            <mxRectangle width="270" height="45" as="alternateBounds" />
          </mxGeometry>
        </mxCell>
        <mxCell id="XaADmC9wufVWzygDD67X-274" style="shape=tableRow;horizontal=0;startSize=0;swimlaneHead=0;swimlaneBody=0;fillColor=none;collapsible=0;dropTarget=0;points=[[0,0.5],[1,0.5]];portConstraint=eastwest;top=0;left=0;right=0;bottom=0;" vertex="1" parent="XaADmC9wufVWzygDD67X-245">
          <mxGeometry y="340" width="636" height="45" as="geometry" />
        </mxCell>
        <mxCell id="XaADmC9wufVWzygDD67X-275" value="json" style="shape=partialRectangle;connectable=0;fillColor=none;top=0;left=0;bottom=0;right=0;align=left;spacingLeft=2;overflow=hidden;fontSize=11;" vertex="1" parent="XaADmC9wufVWzygDD67X-274">
          <mxGeometry width="48" height="45" as="geometry">
            <mxRectangle width="48" height="45" as="alternateBounds" />
          </mxGeometry>
        </mxCell>
        <mxCell id="XaADmC9wufVWzygDD67X-276" value="assignees" style="shape=partialRectangle;connectable=0;fillColor=none;top=0;left=0;bottom=0;right=0;align=left;spacingLeft=2;overflow=hidden;fontSize=11;" vertex="1" parent="XaADmC9wufVWzygDD67X-274">
          <mxGeometry x="48" width="318" height="45" as="geometry">
            <mxRectangle width="318" height="45" as="alternateBounds" />
          </mxGeometry>
        </mxCell>
        <mxCell id="XaADmC9wufVWzygDD67X-277" value="liste d&#39;IDs USERS (implémente N–N)" style="shape=partialRectangle;connectable=0;fillColor=none;top=0;left=0;bottom=0;right=0;align=left;spacingLeft=2;overflow=hidden;fontSize=11;" vertex="1" parent="XaADmC9wufVWzygDD67X-274">
          <mxGeometry x="366" width="270" height="45" as="geometry">
            <mxRectangle width="270" height="45" as="alternateBounds" />
          </mxGeometry>
        </mxCell>
        <mxCell id="XaADmC9wufVWzygDD67X-278" style="shape=tableRow;horizontal=0;startSize=0;swimlaneHead=0;swimlaneBody=0;fillColor=none;collapsible=0;dropTarget=0;points=[[0,0.5],[1,0.5]];portConstraint=eastwest;top=0;left=0;right=0;bottom=0;" vertex="1" parent="XaADmC9wufVWzygDD67X-245">
          <mxGeometry y="385" width="636" height="45" as="geometry" />
        </mxCell>
        <mxCell id="XaADmC9wufVWzygDD67X-279" value="int" style="shape=partialRectangle;connectable=0;fillColor=none;top=0;left=0;bottom=0;right=0;align=left;spacingLeft=2;overflow=hidden;fontSize=11;" vertex="1" parent="XaADmC9wufVWzygDD67X-278">
          <mxGeometry width="48" height="45" as="geometry">
            <mxRectangle width="48" height="45" as="alternateBounds" />
          </mxGeometry>
        </mxCell>
        <mxCell id="XaADmC9wufVWzygDD67X-280" value="construction_site_id" style="shape=partialRectangle;connectable=0;fillColor=none;top=0;left=0;bottom=0;right=0;align=left;spacingLeft=2;overflow=hidden;fontSize=11;" vertex="1" parent="XaADmC9wufVWzygDD67X-278">
          <mxGeometry x="48" width="318" height="45" as="geometry">
            <mxRectangle width="318" height="45" as="alternateBounds" />
          </mxGeometry>
        </mxCell>
        <mxCell id="XaADmC9wufVWzygDD67X-281" value="FK -&gt; CONSTRUCTION_SITES.construction_site_id" style="shape=partialRectangle;connectable=0;fillColor=none;top=0;left=0;bottom=0;right=0;align=left;spacingLeft=2;overflow=hidden;fontSize=11;" vertex="1" parent="XaADmC9wufVWzygDD67X-278">
          <mxGeometry x="366" width="270" height="45" as="geometry">
            <mxRectangle width="270" height="45" as="alternateBounds" />
          </mxGeometry>
        </mxCell>
        <mxCell id="XaADmC9wufVWzygDD67X-282" value="TIMESHEETS" style="shape=table;startSize=25;container=1;collapsible=0;childLayout=tableLayout;fixedRows=1;rowLines=1;fontStyle=1;align=center;resizeLast=1;" vertex="1" parent="1">
          <mxGeometry x="20" y="1567" width="636" height="257" as="geometry" />
        </mxCell>
        <mxCell id="XaADmC9wufVWzygDD67X-283" style="shape=tableRow;horizontal=0;startSize=0;swimlaneHead=0;swimlaneBody=0;fillColor=none;collapsible=0;dropTarget=0;points=[[0,0.5],[1,0.5]];portConstraint=eastwest;top=0;left=0;right=0;bottom=0;" vertex="1" parent="XaADmC9wufVWzygDD67X-282">
          <mxGeometry y="25" width="636" height="46" as="geometry" />
        </mxCell>
        <mxCell id="XaADmC9wufVWzygDD67X-284" value="int" style="shape=partialRectangle;connectable=0;fillColor=none;top=0;left=0;bottom=0;right=0;align=left;spacingLeft=2;overflow=hidden;fontSize=11;" vertex="1" parent="XaADmC9wufVWzygDD67X-283">
          <mxGeometry width="48" height="46" as="geometry">
            <mxRectangle width="48" height="46" as="alternateBounds" />
          </mxGeometry>
        </mxCell>
        <mxCell id="XaADmC9wufVWzygDD67X-285" value="timesheet_id" style="shape=partialRectangle;connectable=0;fillColor=none;top=0;left=0;bottom=0;right=0;align=left;spacingLeft=2;overflow=hidden;fontSize=11;" vertex="1" parent="XaADmC9wufVWzygDD67X-283">
          <mxGeometry x="48" width="318" height="46" as="geometry">
            <mxRectangle width="318" height="46" as="alternateBounds" />
          </mxGeometry>
        </mxCell>
        <mxCell id="XaADmC9wufVWzygDD67X-286" value="PK" style="shape=partialRectangle;connectable=0;fillColor=none;top=0;left=0;bottom=0;right=0;align=left;spacingLeft=2;overflow=hidden;fontSize=11;" vertex="1" parent="XaADmC9wufVWzygDD67X-283">
          <mxGeometry x="366" width="270" height="46" as="geometry">
            <mxRectangle width="270" height="46" as="alternateBounds" />
          </mxGeometry>
        </mxCell>
        <mxCell id="XaADmC9wufVWzygDD67X-287" style="shape=tableRow;horizontal=0;startSize=0;swimlaneHead=0;swimlaneBody=0;fillColor=none;collapsible=0;dropTarget=0;points=[[0,0.5],[1,0.5]];portConstraint=eastwest;top=0;left=0;right=0;bottom=0;" vertex="1" parent="XaADmC9wufVWzygDD67X-282">
          <mxGeometry y="71" width="636" height="46" as="geometry" />
        </mxCell>
        <mxCell id="XaADmC9wufVWzygDD67X-288" value="datetime" style="shape=partialRectangle;connectable=0;fillColor=none;top=0;left=0;bottom=0;right=0;align=left;spacingLeft=2;overflow=hidden;fontSize=11;" vertex="1" parent="XaADmC9wufVWzygDD67X-287">
          <mxGeometry width="48" height="46" as="geometry">
            <mxRectangle width="48" height="46" as="alternateBounds" />
          </mxGeometry>
        </mxCell>
        <mxCell id="XaADmC9wufVWzygDD67X-289" value="start_date" style="shape=partialRectangle;connectable=0;fillColor=none;top=0;left=0;bottom=0;right=0;align=left;spacingLeft=2;overflow=hidden;fontSize=11;" vertex="1" parent="XaADmC9wufVWzygDD67X-287">
          <mxGeometry x="48" width="318" height="46" as="geometry">
            <mxRectangle width="318" height="46" as="alternateBounds" />
          </mxGeometry>
        </mxCell>
        <mxCell id="XaADmC9wufVWzygDD67X-290" value="" style="shape=partialRectangle;connectable=0;fillColor=none;top=0;left=0;bottom=0;right=0;align=left;spacingLeft=2;overflow=hidden;fontSize=11;" vertex="1" parent="XaADmC9wufVWzygDD67X-287">
          <mxGeometry x="366" width="270" height="46" as="geometry">
            <mxRectangle width="270" height="46" as="alternateBounds" />
          </mxGeometry>
        </mxCell>
        <mxCell id="XaADmC9wufVWzygDD67X-291" style="shape=tableRow;horizontal=0;startSize=0;swimlaneHead=0;swimlaneBody=0;fillColor=none;collapsible=0;dropTarget=0;points=[[0,0.5],[1,0.5]];portConstraint=eastwest;top=0;left=0;right=0;bottom=0;" vertex="1" parent="XaADmC9wufVWzygDD67X-282">
          <mxGeometry y="117" width="636" height="46" as="geometry" />
        </mxCell>
        <mxCell id="XaADmC9wufVWzygDD67X-292" value="datetime" style="shape=partialRectangle;connectable=0;fillColor=none;top=0;left=0;bottom=0;right=0;align=left;spacingLeft=2;overflow=hidden;fontSize=11;" vertex="1" parent="XaADmC9wufVWzygDD67X-291">
          <mxGeometry width="48" height="46" as="geometry">
            <mxRectangle width="48" height="46" as="alternateBounds" />
          </mxGeometry>
        </mxCell>
        <mxCell id="XaADmC9wufVWzygDD67X-293" value="end_date" style="shape=partialRectangle;connectable=0;fillColor=none;top=0;left=0;bottom=0;right=0;align=left;spacingLeft=2;overflow=hidden;fontSize=11;" vertex="1" parent="XaADmC9wufVWzygDD67X-291">
          <mxGeometry x="48" width="318" height="46" as="geometry">
            <mxRectangle width="318" height="46" as="alternateBounds" />
          </mxGeometry>
        </mxCell>
        <mxCell id="XaADmC9wufVWzygDD67X-294" value="" style="shape=partialRectangle;connectable=0;fillColor=none;top=0;left=0;bottom=0;right=0;align=left;spacingLeft=2;overflow=hidden;fontSize=11;" vertex="1" parent="XaADmC9wufVWzygDD67X-291">
          <mxGeometry x="366" width="270" height="46" as="geometry">
            <mxRectangle width="270" height="46" as="alternateBounds" />
          </mxGeometry>
        </mxCell>
        <mxCell id="XaADmC9wufVWzygDD67X-295" style="shape=tableRow;horizontal=0;startSize=0;swimlaneHead=0;swimlaneBody=0;fillColor=none;collapsible=0;dropTarget=0;points=[[0,0.5],[1,0.5]];portConstraint=eastwest;top=0;left=0;right=0;bottom=0;" vertex="1" parent="XaADmC9wufVWzygDD67X-282">
          <mxGeometry y="163" width="636" height="46" as="geometry" />
        </mxCell>
        <mxCell id="XaADmC9wufVWzygDD67X-296" value="int" style="shape=partialRectangle;connectable=0;fillColor=none;top=0;left=0;bottom=0;right=0;align=left;spacingLeft=2;overflow=hidden;fontSize=11;" vertex="1" parent="XaADmC9wufVWzygDD67X-295">
          <mxGeometry width="48" height="46" as="geometry">
            <mxRectangle width="48" height="46" as="alternateBounds" />
          </mxGeometry>
        </mxCell>
        <mxCell id="XaADmC9wufVWzygDD67X-297" value="user_id" style="shape=partialRectangle;connectable=0;fillColor=none;top=0;left=0;bottom=0;right=0;align=left;spacingLeft=2;overflow=hidden;fontSize=11;" vertex="1" parent="XaADmC9wufVWzygDD67X-295">
          <mxGeometry x="48" width="318" height="46" as="geometry">
            <mxRectangle width="318" height="46" as="alternateBounds" />
          </mxGeometry>
        </mxCell>
        <mxCell id="XaADmC9wufVWzygDD67X-298" value="FK -&gt; USERS.user_id" style="shape=partialRectangle;connectable=0;fillColor=none;top=0;left=0;bottom=0;right=0;align=left;spacingLeft=2;overflow=hidden;fontSize=11;" vertex="1" parent="XaADmC9wufVWzygDD67X-295">
          <mxGeometry x="366" width="270" height="46" as="geometry">
            <mxRectangle width="270" height="46" as="alternateBounds" />
          </mxGeometry>
        </mxCell>
        <mxCell id="XaADmC9wufVWzygDD67X-299" style="shape=tableRow;horizontal=0;startSize=0;swimlaneHead=0;swimlaneBody=0;fillColor=none;collapsible=0;dropTarget=0;points=[[0,0.5],[1,0.5]];portConstraint=eastwest;top=0;left=0;right=0;bottom=0;" vertex="1" parent="XaADmC9wufVWzygDD67X-282">
          <mxGeometry y="209" width="636" height="46" as="geometry" />
        </mxCell>
        <mxCell id="XaADmC9wufVWzygDD67X-300" value="int" style="shape=partialRectangle;connectable=0;fillColor=none;top=0;left=0;bottom=0;right=0;align=left;spacingLeft=2;overflow=hidden;fontSize=11;" vertex="1" parent="XaADmC9wufVWzygDD67X-299">
          <mxGeometry width="48" height="46" as="geometry">
            <mxRectangle width="48" height="46" as="alternateBounds" />
          </mxGeometry>
        </mxCell>
        <mxCell id="XaADmC9wufVWzygDD67X-301" value="construction_site_id" style="shape=partialRectangle;connectable=0;fillColor=none;top=0;left=0;bottom=0;right=0;align=left;spacingLeft=2;overflow=hidden;fontSize=11;" vertex="1" parent="XaADmC9wufVWzygDD67X-299">
          <mxGeometry x="48" width="318" height="46" as="geometry">
            <mxRectangle width="318" height="46" as="alternateBounds" />
          </mxGeometry>
        </mxCell>
        <mxCell id="XaADmC9wufVWzygDD67X-302" value="FK -&gt; CONSTRUCTION_SITES.construction_site_id" style="shape=partialRectangle;connectable=0;fillColor=none;top=0;left=0;bottom=0;right=0;align=left;spacingLeft=2;overflow=hidden;fontSize=11;" vertex="1" parent="XaADmC9wufVWzygDD67X-299">
          <mxGeometry x="366" width="270" height="46" as="geometry">
            <mxRectangle width="270" height="46" as="alternateBounds" />
          </mxGeometry>
        </mxCell>
        <mxCell id="XaADmC9wufVWzygDD67X-303" value="PASSWORD_RESET_TOKENS" style="shape=table;startSize=25;container=1;collapsible=0;childLayout=tableLayout;fixedRows=1;rowLines=1;fontStyle=1;align=center;resizeLast=1;" vertex="1" parent="1">
          <mxGeometry x="415" y="909" width="365" height="385" as="geometry" />
        </mxCell>
        <mxCell id="XaADmC9wufVWzygDD67X-304" style="shape=tableRow;horizontal=0;startSize=0;swimlaneHead=0;swimlaneBody=0;fillColor=none;collapsible=0;dropTarget=0;points=[[0,0.5],[1,0.5]];portConstraint=eastwest;top=0;left=0;right=0;bottom=0;" vertex="1" parent="XaADmC9wufVWzygDD67X-303">
          <mxGeometry y="25" width="365" height="45" as="geometry" />
        </mxCell>
        <mxCell id="XaADmC9wufVWzygDD67X-305" value="int" style="shape=partialRectangle;connectable=0;fillColor=none;top=0;left=0;bottom=0;right=0;align=left;spacingLeft=2;overflow=hidden;fontSize=11;" vertex="1" parent="XaADmC9wufVWzygDD67X-304">
          <mxGeometry width="48" height="45" as="geometry">
            <mxRectangle width="48" height="45" as="alternateBounds" />
          </mxGeometry>
        </mxCell>
        <mxCell id="XaADmC9wufVWzygDD67X-306" value="id" style="shape=partialRectangle;connectable=0;fillColor=none;top=0;left=0;bottom=0;right=0;align=left;spacingLeft=2;overflow=hidden;fontSize=11;" vertex="1" parent="XaADmC9wufVWzygDD67X-304">
          <mxGeometry x="48" width="203" height="45" as="geometry">
            <mxRectangle width="203" height="45" as="alternateBounds" />
          </mxGeometry>
        </mxCell>
        <mxCell id="XaADmC9wufVWzygDD67X-307" value="PK" style="shape=partialRectangle;connectable=0;fillColor=none;top=0;left=0;bottom=0;right=0;align=left;spacingLeft=2;overflow=hidden;fontSize=11;" vertex="1" parent="XaADmC9wufVWzygDD67X-304">
          <mxGeometry x="251" width="114" height="45" as="geometry">
            <mxRectangle width="114" height="45" as="alternateBounds" />
          </mxGeometry>
        </mxCell>
        <mxCell id="XaADmC9wufVWzygDD67X-308" style="shape=tableRow;horizontal=0;startSize=0;swimlaneHead=0;swimlaneBody=0;fillColor=none;collapsible=0;dropTarget=0;points=[[0,0.5],[1,0.5]];portConstraint=eastwest;top=0;left=0;right=0;bottom=0;" vertex="1" parent="XaADmC9wufVWzygDD67X-303">
          <mxGeometry y="70" width="365" height="45" as="geometry" />
        </mxCell>
        <mxCell id="XaADmC9wufVWzygDD67X-309" value="int" style="shape=partialRectangle;connectable=0;fillColor=none;top=0;left=0;bottom=0;right=0;align=left;spacingLeft=2;overflow=hidden;fontSize=11;" vertex="1" parent="XaADmC9wufVWzygDD67X-308">
          <mxGeometry width="48" height="45" as="geometry">
            <mxRectangle width="48" height="45" as="alternateBounds" />
          </mxGeometry>
        </mxCell>
        <mxCell id="XaADmC9wufVWzygDD67X-310" value="user_id" style="shape=partialRectangle;connectable=0;fillColor=none;top=0;left=0;bottom=0;right=0;align=left;spacingLeft=2;overflow=hidden;fontSize=11;" vertex="1" parent="XaADmC9wufVWzygDD67X-308">
          <mxGeometry x="48" width="203" height="45" as="geometry">
            <mxRectangle width="203" height="45" as="alternateBounds" />
          </mxGeometry>
        </mxCell>
        <mxCell id="XaADmC9wufVWzygDD67X-311" value="FK -&gt; USERS.user_id" style="shape=partialRectangle;connectable=0;fillColor=none;top=0;left=0;bottom=0;right=0;align=left;spacingLeft=2;overflow=hidden;fontSize=11;" vertex="1" parent="XaADmC9wufVWzygDD67X-308">
          <mxGeometry x="251" width="114" height="45" as="geometry">
            <mxRectangle width="114" height="45" as="alternateBounds" />
          </mxGeometry>
        </mxCell>
        <mxCell id="XaADmC9wufVWzygDD67X-312" style="shape=tableRow;horizontal=0;startSize=0;swimlaneHead=0;swimlaneBody=0;fillColor=none;collapsible=0;dropTarget=0;points=[[0,0.5],[1,0.5]];portConstraint=eastwest;top=0;left=0;right=0;bottom=0;" vertex="1" parent="XaADmC9wufVWzygDD67X-303">
          <mxGeometry y="115" width="365" height="45" as="geometry" />
        </mxCell>
        <mxCell id="XaADmC9wufVWzygDD67X-313" value="string" style="shape=partialRectangle;connectable=0;fillColor=none;top=0;left=0;bottom=0;right=0;align=left;spacingLeft=2;overflow=hidden;fontSize=11;" vertex="1" parent="XaADmC9wufVWzygDD67X-312">
          <mxGeometry width="48" height="45" as="geometry">
            <mxRectangle width="48" height="45" as="alternateBounds" />
          </mxGeometry>
        </mxCell>
        <mxCell id="XaADmC9wufVWzygDD67X-314" value="token_hash" style="shape=partialRectangle;connectable=0;fillColor=none;top=0;left=0;bottom=0;right=0;align=left;spacingLeft=2;overflow=hidden;fontSize=11;" vertex="1" parent="XaADmC9wufVWzygDD67X-312">
          <mxGeometry x="48" width="203" height="45" as="geometry">
            <mxRectangle width="203" height="45" as="alternateBounds" />
          </mxGeometry>
        </mxCell>
        <mxCell id="XaADmC9wufVWzygDD67X-315" value="UK" style="shape=partialRectangle;connectable=0;fillColor=none;top=0;left=0;bottom=0;right=0;align=left;spacingLeft=2;overflow=hidden;fontSize=11;" vertex="1" parent="XaADmC9wufVWzygDD67X-312">
          <mxGeometry x="251" width="114" height="45" as="geometry">
            <mxRectangle width="114" height="45" as="alternateBounds" />
          </mxGeometry>
        </mxCell>
        <mxCell id="XaADmC9wufVWzygDD67X-316" style="shape=tableRow;horizontal=0;startSize=0;swimlaneHead=0;swimlaneBody=0;fillColor=none;collapsible=0;dropTarget=0;points=[[0,0.5],[1,0.5]];portConstraint=eastwest;top=0;left=0;right=0;bottom=0;" vertex="1" parent="XaADmC9wufVWzygDD67X-303">
          <mxGeometry y="160" width="365" height="45" as="geometry" />
        </mxCell>
        <mxCell id="XaADmC9wufVWzygDD67X-317" value="datetime" style="shape=partialRectangle;connectable=0;fillColor=none;top=0;left=0;bottom=0;right=0;align=left;spacingLeft=2;overflow=hidden;fontSize=11;" vertex="1" parent="XaADmC9wufVWzygDD67X-316">
          <mxGeometry width="48" height="45" as="geometry">
            <mxRectangle width="48" height="45" as="alternateBounds" />
          </mxGeometry>
        </mxCell>
        <mxCell id="XaADmC9wufVWzygDD67X-318" value="expires_at" style="shape=partialRectangle;connectable=0;fillColor=none;top=0;left=0;bottom=0;right=0;align=left;spacingLeft=2;overflow=hidden;fontSize=11;" vertex="1" parent="XaADmC9wufVWzygDD67X-316">
          <mxGeometry x="48" width="203" height="45" as="geometry">
            <mxRectangle width="203" height="45" as="alternateBounds" />
          </mxGeometry>
        </mxCell>
        <mxCell id="XaADmC9wufVWzygDD67X-319" value="" style="shape=partialRectangle;connectable=0;fillColor=none;top=0;left=0;bottom=0;right=0;align=left;spacingLeft=2;overflow=hidden;fontSize=11;" vertex="1" parent="XaADmC9wufVWzygDD67X-316">
          <mxGeometry x="251" width="114" height="45" as="geometry">
            <mxRectangle width="114" height="45" as="alternateBounds" />
          </mxGeometry>
        </mxCell>
        <mxCell id="XaADmC9wufVWzygDD67X-320" style="shape=tableRow;horizontal=0;startSize=0;swimlaneHead=0;swimlaneBody=0;fillColor=none;collapsible=0;dropTarget=0;points=[[0,0.5],[1,0.5]];portConstraint=eastwest;top=0;left=0;right=0;bottom=0;" vertex="1" parent="XaADmC9wufVWzygDD67X-303">
          <mxGeometry y="205" width="365" height="45" as="geometry" />
        </mxCell>
        <mxCell id="XaADmC9wufVWzygDD67X-321" value="datetime" style="shape=partialRectangle;connectable=0;fillColor=none;top=0;left=0;bottom=0;right=0;align=left;spacingLeft=2;overflow=hidden;fontSize=11;" vertex="1" parent="XaADmC9wufVWzygDD67X-320">
          <mxGeometry width="48" height="45" as="geometry">
            <mxRectangle width="48" height="45" as="alternateBounds" />
          </mxGeometry>
        </mxCell>
        <mxCell id="XaADmC9wufVWzygDD67X-322" value="used_at" style="shape=partialRectangle;connectable=0;fillColor=none;top=0;left=0;bottom=0;right=0;align=left;spacingLeft=2;overflow=hidden;fontSize=11;" vertex="1" parent="XaADmC9wufVWzygDD67X-320">
          <mxGeometry x="48" width="203" height="45" as="geometry">
            <mxRectangle width="203" height="45" as="alternateBounds" />
          </mxGeometry>
        </mxCell>
        <mxCell id="XaADmC9wufVWzygDD67X-323" value="" style="shape=partialRectangle;connectable=0;fillColor=none;top=0;left=0;bottom=0;right=0;align=left;spacingLeft=2;overflow=hidden;fontSize=11;" vertex="1" parent="XaADmC9wufVWzygDD67X-320">
          <mxGeometry x="251" width="114" height="45" as="geometry">
            <mxRectangle width="114" height="45" as="alternateBounds" />
          </mxGeometry>
        </mxCell>
        <mxCell id="XaADmC9wufVWzygDD67X-324" style="shape=tableRow;horizontal=0;startSize=0;swimlaneHead=0;swimlaneBody=0;fillColor=none;collapsible=0;dropTarget=0;points=[[0,0.5],[1,0.5]];portConstraint=eastwest;top=0;left=0;right=0;bottom=0;" vertex="1" parent="XaADmC9wufVWzygDD67X-303">
          <mxGeometry y="250" width="365" height="45" as="geometry" />
        </mxCell>
        <mxCell id="XaADmC9wufVWzygDD67X-325" value="string" style="shape=partialRectangle;connectable=0;fillColor=none;top=0;left=0;bottom=0;right=0;align=left;spacingLeft=2;overflow=hidden;fontSize=11;" vertex="1" parent="XaADmC9wufVWzygDD67X-324">
          <mxGeometry width="48" height="45" as="geometry">
            <mxRectangle width="48" height="45" as="alternateBounds" />
          </mxGeometry>
        </mxCell>
        <mxCell id="XaADmC9wufVWzygDD67X-326" value="ip" style="shape=partialRectangle;connectable=0;fillColor=none;top=0;left=0;bottom=0;right=0;align=left;spacingLeft=2;overflow=hidden;fontSize=11;" vertex="1" parent="XaADmC9wufVWzygDD67X-324">
          <mxGeometry x="48" width="203" height="45" as="geometry">
            <mxRectangle width="203" height="45" as="alternateBounds" />
          </mxGeometry>
        </mxCell>
        <mxCell id="XaADmC9wufVWzygDD67X-327" value="" style="shape=partialRectangle;connectable=0;fillColor=none;top=0;left=0;bottom=0;right=0;align=left;spacingLeft=2;overflow=hidden;fontSize=11;" vertex="1" parent="XaADmC9wufVWzygDD67X-324">
          <mxGeometry x="251" width="114" height="45" as="geometry">
            <mxRectangle width="114" height="45" as="alternateBounds" />
          </mxGeometry>
        </mxCell>
        <mxCell id="XaADmC9wufVWzygDD67X-328" style="shape=tableRow;horizontal=0;startSize=0;swimlaneHead=0;swimlaneBody=0;fillColor=none;collapsible=0;dropTarget=0;points=[[0,0.5],[1,0.5]];portConstraint=eastwest;top=0;left=0;right=0;bottom=0;" vertex="1" parent="XaADmC9wufVWzygDD67X-303">
          <mxGeometry y="295" width="365" height="45" as="geometry" />
        </mxCell>
        <mxCell id="XaADmC9wufVWzygDD67X-329" value="string" style="shape=partialRectangle;connectable=0;fillColor=none;top=0;left=0;bottom=0;right=0;align=left;spacingLeft=2;overflow=hidden;fontSize=11;" vertex="1" parent="XaADmC9wufVWzygDD67X-328">
          <mxGeometry width="48" height="45" as="geometry">
            <mxRectangle width="48" height="45" as="alternateBounds" />
          </mxGeometry>
        </mxCell>
        <mxCell id="XaADmC9wufVWzygDD67X-330" value="user_agent" style="shape=partialRectangle;connectable=0;fillColor=none;top=0;left=0;bottom=0;right=0;align=left;spacingLeft=2;overflow=hidden;fontSize=11;" vertex="1" parent="XaADmC9wufVWzygDD67X-328">
          <mxGeometry x="48" width="203" height="45" as="geometry">
            <mxRectangle width="203" height="45" as="alternateBounds" />
          </mxGeometry>
        </mxCell>
        <mxCell id="XaADmC9wufVWzygDD67X-331" value="" style="shape=partialRectangle;connectable=0;fillColor=none;top=0;left=0;bottom=0;right=0;align=left;spacingLeft=2;overflow=hidden;fontSize=11;" vertex="1" parent="XaADmC9wufVWzygDD67X-328">
          <mxGeometry x="251" width="114" height="45" as="geometry">
            <mxRectangle width="114" height="45" as="alternateBounds" />
          </mxGeometry>
        </mxCell>
        <mxCell id="XaADmC9wufVWzygDD67X-332" style="shape=tableRow;horizontal=0;startSize=0;swimlaneHead=0;swimlaneBody=0;fillColor=none;collapsible=0;dropTarget=0;points=[[0,0.5],[1,0.5]];portConstraint=eastwest;top=0;left=0;right=0;bottom=0;" vertex="1" parent="XaADmC9wufVWzygDD67X-303">
          <mxGeometry y="340" width="365" height="45" as="geometry" />
        </mxCell>
        <mxCell id="XaADmC9wufVWzygDD67X-333" value="datetime" style="shape=partialRectangle;connectable=0;fillColor=none;top=0;left=0;bottom=0;right=0;align=left;spacingLeft=2;overflow=hidden;fontSize=11;" vertex="1" parent="XaADmC9wufVWzygDD67X-332">
          <mxGeometry width="48" height="45" as="geometry">
            <mxRectangle width="48" height="45" as="alternateBounds" />
          </mxGeometry>
        </mxCell>
        <mxCell id="XaADmC9wufVWzygDD67X-334" value="created_at" style="shape=partialRectangle;connectable=0;fillColor=none;top=0;left=0;bottom=0;right=0;align=left;spacingLeft=2;overflow=hidden;fontSize=11;" vertex="1" parent="XaADmC9wufVWzygDD67X-332">
          <mxGeometry x="48" width="203" height="45" as="geometry">
            <mxRectangle width="203" height="45" as="alternateBounds" />
          </mxGeometry>
        </mxCell>
        <mxCell id="XaADmC9wufVWzygDD67X-335" value="" style="shape=partialRectangle;connectable=0;fillColor=none;top=0;left=0;bottom=0;right=0;align=left;spacingLeft=2;overflow=hidden;fontSize=11;" vertex="1" parent="XaADmC9wufVWzygDD67X-332">
          <mxGeometry x="251" width="114" height="45" as="geometry">
            <mxRectangle width="114" height="45" as="alternateBounds" />
          </mxGeometry>
        </mxCell>
        <mxCell id="XaADmC9wufVWzygDD67X-336" value="1,N" style="curved=1;startArrow=ERmandOne;startSize=10;;endArrow=ERzeroToMany;endSize=10;;exitX=0;exitY=0.79;entryX=0.49;entryY=0;rounded=0;" edge="1" parent="1" source="XaADmC9wufVWzygDD67X-146" target="XaADmC9wufVWzygDD67X-282">
          <mxGeometry relative="1" as="geometry">
            <Array as="points">
              <mxPoint x="321" y="772" />
              <mxPoint x="321" y="1431" />
            </Array>
          </mxGeometry>
        </mxCell>
        <mxCell id="XaADmC9wufVWzygDD67X-337" value="chef_de_projet 1,N" style="curved=1;startArrow=ERmandOne;startSize=10;;endArrow=ERzeroToMany;endSize=10;;exitX=0.92;exitY=1;entryX=0.5;entryY=0;rounded=0;" edge="1" parent="1" source="XaADmC9wufVWzygDD67X-146" target="XaADmC9wufVWzygDD67X-196">
          <mxGeometry relative="1" as="geometry">
            <Array as="points">
              <mxPoint x="1122" y="772" />
            </Array>
          </mxGeometry>
        </mxCell>
        <mxCell id="XaADmC9wufVWzygDD67X-338" value="1,N" style="curved=1;startArrow=ERmandOne;startSize=10;;endArrow=ERzeroToMany;endSize=10;;exitX=0.08;exitY=1;entryX=0.5;entryY=0;rounded=0;" edge="1" parent="1" source="XaADmC9wufVWzygDD67X-146" target="XaADmC9wufVWzygDD67X-303">
          <mxGeometry relative="1" as="geometry">
            <Array as="points">
              <mxPoint x="598" y="772" />
            </Array>
          </mxGeometry>
        </mxCell>
        <mxCell id="XaADmC9wufVWzygDD67X-339" value="1,N" style="curved=1;startArrow=ERmandOne;startSize=10;;endArrow=ERzeroToMany;endSize=10;;exitX=0.5;exitY=1;entryX=0.5;entryY=0;rounded=0;" edge="1" parent="1" source="XaADmC9wufVWzygDD67X-187" target="XaADmC9wufVWzygDD67X-146">
          <mxGeometry relative="1" as="geometry">
            <Array as="points" />
          </mxGeometry>
        </mxCell>
        <mxCell id="XaADmC9wufVWzygDD67X-340" value="1,N" style="curved=1;startArrow=ERmandOne;startSize=10;;endArrow=ERzeroToMany;endSize=10;;exitX=0.86;exitY=1;entryX=0.26;entryY=0;rounded=0;" edge="1" parent="1" source="XaADmC9wufVWzygDD67X-196" target="XaADmC9wufVWzygDD67X-245">
          <mxGeometry relative="1" as="geometry">
            <Array as="points">
              <mxPoint x="1295" y="1431" />
            </Array>
          </mxGeometry>
        </mxCell>
        <mxCell id="XaADmC9wufVWzygDD67X-341" value="1,N" style="curved=1;startArrow=ERmandOne;startSize=10;;endArrow=ERzeroToMany;endSize=10;;exitX=0;exitY=0.81;entryX=0.81;entryY=0;rounded=0;" edge="1" parent="1" source="XaADmC9wufVWzygDD67X-196" target="XaADmC9wufVWzygDD67X-282">
          <mxGeometry relative="1" as="geometry">
            <Array as="points">
              <mxPoint x="739" y="1431" />
            </Array>
          </mxGeometry>
        </mxCell>
        <mxCell id="XaADmC9wufVWzygDD67X-342" value="N,N (concept) → impl. par TASKS.assignees" style="curved=1;startArrow=ERzeroToMany;startSize=10;;endArrow=ERzeroToMany;endSize=10;;exitX=1;exitY=0.74;entryX=0.52;entryY=0;rounded=0;" edge="1" parent="1" source="XaADmC9wufVWzygDD67X-146" target="XaADmC9wufVWzygDD67X-245">
          <mxGeometry relative="1" as="geometry">
            <Array as="points">
              <mxPoint x="1502" y="772" />
              <mxPoint x="1502" y="1431" />
            </Array>
          </mxGeometry>
        </mxCell>
      </root>
    </mxGraphModel>
  </diagram>
  <diagram id="qZwg1JJPoxVtM_2KhDlF" name="Page-2">
    <mxGraphModel dx="851" dy="1102" grid="1" gridSize="10" guides="1" tooltips="1" connect="1" arrows="1" fold="1" page="1" pageScale="1" pageWidth="827" pageHeight="1169" math="0" shadow="0">
      <root>
        <mxCell id="0" />
        <mxCell id="1" parent="0" />
        <mxCell id="iEk-QBiO7u8IQEbBDVrZ-72" value="USERS" style="shape=table;startSize=25;container=1;collapsible=0;childLayout=tableLayout;fixedRows=1;rowLines=1;fontStyle=1;align=center;resizeLast=1;" vertex="1" parent="1">
          <mxGeometry x="233" y="465" width="225" height="513" as="geometry" />
        </mxCell>
        <mxCell id="iEk-QBiO7u8IQEbBDVrZ-73" style="shape=tableRow;horizontal=0;startSize=0;swimlaneHead=0;swimlaneBody=0;fillColor=none;collapsible=0;dropTarget=0;points=[[0,0.5],[1,0.5]];portConstraint=eastwest;top=0;left=0;right=0;bottom=0;" vertex="1" parent="iEk-QBiO7u8IQEbBDVrZ-72">
          <mxGeometry y="25" width="225" height="44" as="geometry" />
        </mxCell>
        <mxCell id="iEk-QBiO7u8IQEbBDVrZ-74" value="int" style="shape=partialRectangle;connectable=0;fillColor=none;top=0;left=0;bottom=0;right=0;align=left;spacingLeft=2;overflow=hidden;fontSize=11;" vertex="1" parent="iEk-QBiO7u8IQEbBDVrZ-73">
          <mxGeometry width="48" height="44" as="geometry">
            <mxRectangle width="48" height="44" as="alternateBounds" />
          </mxGeometry>
        </mxCell>
        <mxCell id="iEk-QBiO7u8IQEbBDVrZ-75" value="user_id" style="shape=partialRectangle;connectable=0;fillColor=none;top=0;left=0;bottom=0;right=0;align=left;spacingLeft=2;overflow=hidden;fontSize=11;" vertex="1" parent="iEk-QBiO7u8IQEbBDVrZ-73">
          <mxGeometry x="48" width="177" height="44" as="geometry">
            <mxRectangle width="177" height="44" as="alternateBounds" />
          </mxGeometry>
        </mxCell>
        <mxCell id="iEk-QBiO7u8IQEbBDVrZ-76" style="shape=tableRow;horizontal=0;startSize=0;swimlaneHead=0;swimlaneBody=0;fillColor=none;collapsible=0;dropTarget=0;points=[[0,0.5],[1,0.5]];portConstraint=eastwest;top=0;left=0;right=0;bottom=0;" vertex="1" parent="iEk-QBiO7u8IQEbBDVrZ-72">
          <mxGeometry y="69" width="225" height="44" as="geometry" />
        </mxCell>
        <mxCell id="iEk-QBiO7u8IQEbBDVrZ-77" value="varchar" style="shape=partialRectangle;connectable=0;fillColor=none;top=0;left=0;bottom=0;right=0;align=left;spacingLeft=2;overflow=hidden;fontSize=11;" vertex="1" parent="iEk-QBiO7u8IQEbBDVrZ-76">
          <mxGeometry width="48" height="44" as="geometry">
            <mxRectangle width="48" height="44" as="alternateBounds" />
          </mxGeometry>
        </mxCell>
        <mxCell id="iEk-QBiO7u8IQEbBDVrZ-78" value="firstname" style="shape=partialRectangle;connectable=0;fillColor=none;top=0;left=0;bottom=0;right=0;align=left;spacingLeft=2;overflow=hidden;fontSize=11;" vertex="1" parent="iEk-QBiO7u8IQEbBDVrZ-76">
          <mxGeometry x="48" width="177" height="44" as="geometry">
            <mxRectangle width="177" height="44" as="alternateBounds" />
          </mxGeometry>
        </mxCell>
        <mxCell id="iEk-QBiO7u8IQEbBDVrZ-79" style="shape=tableRow;horizontal=0;startSize=0;swimlaneHead=0;swimlaneBody=0;fillColor=none;collapsible=0;dropTarget=0;points=[[0,0.5],[1,0.5]];portConstraint=eastwest;top=0;left=0;right=0;bottom=0;" vertex="1" parent="iEk-QBiO7u8IQEbBDVrZ-72">
          <mxGeometry y="113" width="225" height="44" as="geometry" />
        </mxCell>
        <mxCell id="iEk-QBiO7u8IQEbBDVrZ-80" value="varchar" style="shape=partialRectangle;connectable=0;fillColor=none;top=0;left=0;bottom=0;right=0;align=left;spacingLeft=2;overflow=hidden;fontSize=11;" vertex="1" parent="iEk-QBiO7u8IQEbBDVrZ-79">
          <mxGeometry width="48" height="44" as="geometry">
            <mxRectangle width="48" height="44" as="alternateBounds" />
          </mxGeometry>
        </mxCell>
        <mxCell id="iEk-QBiO7u8IQEbBDVrZ-81" value="lastname" style="shape=partialRectangle;connectable=0;fillColor=none;top=0;left=0;bottom=0;right=0;align=left;spacingLeft=2;overflow=hidden;fontSize=11;" vertex="1" parent="iEk-QBiO7u8IQEbBDVrZ-79">
          <mxGeometry x="48" width="177" height="44" as="geometry">
            <mxRectangle width="177" height="44" as="alternateBounds" />
          </mxGeometry>
        </mxCell>
        <mxCell id="iEk-QBiO7u8IQEbBDVrZ-82" style="shape=tableRow;horizontal=0;startSize=0;swimlaneHead=0;swimlaneBody=0;fillColor=none;collapsible=0;dropTarget=0;points=[[0,0.5],[1,0.5]];portConstraint=eastwest;top=0;left=0;right=0;bottom=0;" vertex="1" parent="iEk-QBiO7u8IQEbBDVrZ-72">
          <mxGeometry y="157" width="225" height="44" as="geometry" />
        </mxCell>
        <mxCell id="iEk-QBiO7u8IQEbBDVrZ-83" value="varchar" style="shape=partialRectangle;connectable=0;fillColor=none;top=0;left=0;bottom=0;right=0;align=left;spacingLeft=2;overflow=hidden;fontSize=11;" vertex="1" parent="iEk-QBiO7u8IQEbBDVrZ-82">
          <mxGeometry width="48" height="44" as="geometry">
            <mxRectangle width="48" height="44" as="alternateBounds" />
          </mxGeometry>
        </mxCell>
        <mxCell id="iEk-QBiO7u8IQEbBDVrZ-84" value="email" style="shape=partialRectangle;connectable=0;fillColor=none;top=0;left=0;bottom=0;right=0;align=left;spacingLeft=2;overflow=hidden;fontSize=11;" vertex="1" parent="iEk-QBiO7u8IQEbBDVrZ-82">
          <mxGeometry x="48" width="177" height="44" as="geometry">
            <mxRectangle width="177" height="44" as="alternateBounds" />
          </mxGeometry>
        </mxCell>
        <mxCell id="iEk-QBiO7u8IQEbBDVrZ-85" style="shape=tableRow;horizontal=0;startSize=0;swimlaneHead=0;swimlaneBody=0;fillColor=none;collapsible=0;dropTarget=0;points=[[0,0.5],[1,0.5]];portConstraint=eastwest;top=0;left=0;right=0;bottom=0;" vertex="1" parent="iEk-QBiO7u8IQEbBDVrZ-72">
          <mxGeometry y="201" width="225" height="44" as="geometry" />
        </mxCell>
        <mxCell id="iEk-QBiO7u8IQEbBDVrZ-86" value="varchar" style="shape=partialRectangle;connectable=0;fillColor=none;top=0;left=0;bottom=0;right=0;align=left;spacingLeft=2;overflow=hidden;fontSize=11;" vertex="1" parent="iEk-QBiO7u8IQEbBDVrZ-85">
          <mxGeometry width="48" height="44" as="geometry">
            <mxRectangle width="48" height="44" as="alternateBounds" />
          </mxGeometry>
        </mxCell>
        <mxCell id="iEk-QBiO7u8IQEbBDVrZ-87" value="numberphone" style="shape=partialRectangle;connectable=0;fillColor=none;top=0;left=0;bottom=0;right=0;align=left;spacingLeft=2;overflow=hidden;fontSize=11;" vertex="1" parent="iEk-QBiO7u8IQEbBDVrZ-85">
          <mxGeometry x="48" width="177" height="44" as="geometry">
            <mxRectangle width="177" height="44" as="alternateBounds" />
          </mxGeometry>
        </mxCell>
        <mxCell id="iEk-QBiO7u8IQEbBDVrZ-88" style="shape=tableRow;horizontal=0;startSize=0;swimlaneHead=0;swimlaneBody=0;fillColor=none;collapsible=0;dropTarget=0;points=[[0,0.5],[1,0.5]];portConstraint=eastwest;top=0;left=0;right=0;bottom=0;" vertex="1" parent="iEk-QBiO7u8IQEbBDVrZ-72">
          <mxGeometry y="245" width="225" height="44" as="geometry" />
        </mxCell>
        <mxCell id="iEk-QBiO7u8IQEbBDVrZ-89" value="varchar" style="shape=partialRectangle;connectable=0;fillColor=none;top=0;left=0;bottom=0;right=0;align=left;spacingLeft=2;overflow=hidden;fontSize=11;" vertex="1" parent="iEk-QBiO7u8IQEbBDVrZ-88">
          <mxGeometry width="48" height="44" as="geometry">
            <mxRectangle width="48" height="44" as="alternateBounds" />
          </mxGeometry>
        </mxCell>
        <mxCell id="iEk-QBiO7u8IQEbBDVrZ-90" value="profile_picture" style="shape=partialRectangle;connectable=0;fillColor=none;top=0;left=0;bottom=0;right=0;align=left;spacingLeft=2;overflow=hidden;fontSize=11;" vertex="1" parent="iEk-QBiO7u8IQEbBDVrZ-88">
          <mxGeometry x="48" width="177" height="44" as="geometry">
            <mxRectangle width="177" height="44" as="alternateBounds" />
          </mxGeometry>
        </mxCell>
        <mxCell id="iEk-QBiO7u8IQEbBDVrZ-91" style="shape=tableRow;horizontal=0;startSize=0;swimlaneHead=0;swimlaneBody=0;fillColor=none;collapsible=0;dropTarget=0;points=[[0,0.5],[1,0.5]];portConstraint=eastwest;top=0;left=0;right=0;bottom=0;" vertex="1" parent="iEk-QBiO7u8IQEbBDVrZ-72">
          <mxGeometry y="289" width="225" height="44" as="geometry" />
        </mxCell>
        <mxCell id="iEk-QBiO7u8IQEbBDVrZ-92" value="varchar" style="shape=partialRectangle;connectable=0;fillColor=none;top=0;left=0;bottom=0;right=0;align=left;spacingLeft=2;overflow=hidden;fontSize=11;" vertex="1" parent="iEk-QBiO7u8IQEbBDVrZ-91">
          <mxGeometry width="48" height="44" as="geometry">
            <mxRectangle width="48" height="44" as="alternateBounds" />
          </mxGeometry>
        </mxCell>
        <mxCell id="iEk-QBiO7u8IQEbBDVrZ-93" value="password" style="shape=partialRectangle;connectable=0;fillColor=none;top=0;left=0;bottom=0;right=0;align=left;spacingLeft=2;overflow=hidden;fontSize=11;" vertex="1" parent="iEk-QBiO7u8IQEbBDVrZ-91">
          <mxGeometry x="48" width="177" height="44" as="geometry">
            <mxRectangle width="177" height="44" as="alternateBounds" />
          </mxGeometry>
        </mxCell>
        <mxCell id="iEk-QBiO7u8IQEbBDVrZ-94" style="shape=tableRow;horizontal=0;startSize=0;swimlaneHead=0;swimlaneBody=0;fillColor=none;collapsible=0;dropTarget=0;points=[[0,0.5],[1,0.5]];portConstraint=eastwest;top=0;left=0;right=0;bottom=0;" vertex="1" parent="iEk-QBiO7u8IQEbBDVrZ-72">
          <mxGeometry y="333" width="225" height="44" as="geometry" />
        </mxCell>
        <mxCell id="iEk-QBiO7u8IQEbBDVrZ-95" value="int" style="shape=partialRectangle;connectable=0;fillColor=none;top=0;left=0;bottom=0;right=0;align=left;spacingLeft=2;overflow=hidden;fontSize=11;" vertex="1" parent="iEk-QBiO7u8IQEbBDVrZ-94">
          <mxGeometry width="48" height="44" as="geometry">
            <mxRectangle width="48" height="44" as="alternateBounds" />
          </mxGeometry>
        </mxCell>
        <mxCell id="iEk-QBiO7u8IQEbBDVrZ-96" value="role_id" style="shape=partialRectangle;connectable=0;fillColor=none;top=0;left=0;bottom=0;right=0;align=left;spacingLeft=2;overflow=hidden;fontSize=11;" vertex="1" parent="iEk-QBiO7u8IQEbBDVrZ-94">
          <mxGeometry x="48" width="177" height="44" as="geometry">
            <mxRectangle width="177" height="44" as="alternateBounds" />
          </mxGeometry>
        </mxCell>
        <mxCell id="iEk-QBiO7u8IQEbBDVrZ-97" style="shape=tableRow;horizontal=0;startSize=0;swimlaneHead=0;swimlaneBody=0;fillColor=none;collapsible=0;dropTarget=0;points=[[0,0.5],[1,0.5]];portConstraint=eastwest;top=0;left=0;right=0;bottom=0;" vertex="1" parent="iEk-QBiO7u8IQEbBDVrZ-72">
          <mxGeometry y="377" width="225" height="44" as="geometry" />
        </mxCell>
        <mxCell id="iEk-QBiO7u8IQEbBDVrZ-98" value="int" style="shape=partialRectangle;connectable=0;fillColor=none;top=0;left=0;bottom=0;right=0;align=left;spacingLeft=2;overflow=hidden;fontSize=11;" vertex="1" parent="iEk-QBiO7u8IQEbBDVrZ-97">
          <mxGeometry width="48" height="44" as="geometry">
            <mxRectangle width="48" height="44" as="alternateBounds" />
          </mxGeometry>
        </mxCell>
        <mxCell id="iEk-QBiO7u8IQEbBDVrZ-99" value="competence_id" style="shape=partialRectangle;connectable=0;fillColor=none;top=0;left=0;bottom=0;right=0;align=left;spacingLeft=2;overflow=hidden;fontSize=11;" vertex="1" parent="iEk-QBiO7u8IQEbBDVrZ-97">
          <mxGeometry x="48" width="177" height="44" as="geometry">
            <mxRectangle width="177" height="44" as="alternateBounds" />
          </mxGeometry>
        </mxCell>
        <mxCell id="iEk-QBiO7u8IQEbBDVrZ-100" style="shape=tableRow;horizontal=0;startSize=0;swimlaneHead=0;swimlaneBody=0;fillColor=none;collapsible=0;dropTarget=0;points=[[0,0.5],[1,0.5]];portConstraint=eastwest;top=0;left=0;right=0;bottom=0;" vertex="1" parent="iEk-QBiO7u8IQEbBDVrZ-72">
          <mxGeometry y="421" width="225" height="44" as="geometry" />
        </mxCell>
        <mxCell id="iEk-QBiO7u8IQEbBDVrZ-101" value="datetime" style="shape=partialRectangle;connectable=0;fillColor=none;top=0;left=0;bottom=0;right=0;align=left;spacingLeft=2;overflow=hidden;fontSize=11;" vertex="1" parent="iEk-QBiO7u8IQEbBDVrZ-100">
          <mxGeometry width="48" height="44" as="geometry">
            <mxRectangle width="48" height="44" as="alternateBounds" />
          </mxGeometry>
        </mxCell>
        <mxCell id="iEk-QBiO7u8IQEbBDVrZ-102" value="created_at" style="shape=partialRectangle;connectable=0;fillColor=none;top=0;left=0;bottom=0;right=0;align=left;spacingLeft=2;overflow=hidden;fontSize=11;" vertex="1" parent="iEk-QBiO7u8IQEbBDVrZ-100">
          <mxGeometry x="48" width="177" height="44" as="geometry">
            <mxRectangle width="177" height="44" as="alternateBounds" />
          </mxGeometry>
        </mxCell>
        <mxCell id="iEk-QBiO7u8IQEbBDVrZ-103" style="shape=tableRow;horizontal=0;startSize=0;swimlaneHead=0;swimlaneBody=0;fillColor=none;collapsible=0;dropTarget=0;points=[[0,0.5],[1,0.5]];portConstraint=eastwest;top=0;left=0;right=0;bottom=0;" vertex="1" parent="iEk-QBiO7u8IQEbBDVrZ-72">
          <mxGeometry y="465" width="225" height="44" as="geometry" />
        </mxCell>
        <mxCell id="iEk-QBiO7u8IQEbBDVrZ-104" value="datetime" style="shape=partialRectangle;connectable=0;fillColor=none;top=0;left=0;bottom=0;right=0;align=left;spacingLeft=2;overflow=hidden;fontSize=11;" vertex="1" parent="iEk-QBiO7u8IQEbBDVrZ-103">
          <mxGeometry width="48" height="44" as="geometry">
            <mxRectangle width="48" height="44" as="alternateBounds" />
          </mxGeometry>
        </mxCell>
        <mxCell id="iEk-QBiO7u8IQEbBDVrZ-105" value="updated_at" style="shape=partialRectangle;connectable=0;fillColor=none;top=0;left=0;bottom=0;right=0;align=left;spacingLeft=2;overflow=hidden;fontSize=11;" vertex="1" parent="iEk-QBiO7u8IQEbBDVrZ-103">
          <mxGeometry x="48" width="177" height="44" as="geometry">
            <mxRectangle width="177" height="44" as="alternateBounds" />
          </mxGeometry>
        </mxCell>
        <mxCell id="iEk-QBiO7u8IQEbBDVrZ-106" value="ROLES" style="shape=table;startSize=25;container=1;collapsible=0;childLayout=tableLayout;fixedRows=1;rowLines=1;fontStyle=1;align=center;resizeLast=1;" vertex="1" parent="1">
          <mxGeometry x="111" y="127" width="154" height="129" as="geometry" />
        </mxCell>
        <mxCell id="iEk-QBiO7u8IQEbBDVrZ-107" style="shape=tableRow;horizontal=0;startSize=0;swimlaneHead=0;swimlaneBody=0;fillColor=none;collapsible=0;dropTarget=0;points=[[0,0.5],[1,0.5]];portConstraint=eastwest;top=0;left=0;right=0;bottom=0;" vertex="1" parent="iEk-QBiO7u8IQEbBDVrZ-106">
          <mxGeometry y="25" width="154" height="52" as="geometry" />
        </mxCell>
        <mxCell id="iEk-QBiO7u8IQEbBDVrZ-108" value="int" style="shape=partialRectangle;connectable=0;fillColor=none;top=0;left=0;bottom=0;right=0;align=left;spacingLeft=2;overflow=hidden;fontSize=11;" vertex="1" parent="iEk-QBiO7u8IQEbBDVrZ-107">
          <mxGeometry width="42" height="52" as="geometry">
            <mxRectangle width="42" height="52" as="alternateBounds" />
          </mxGeometry>
        </mxCell>
        <mxCell id="iEk-QBiO7u8IQEbBDVrZ-109" value="role_id" style="shape=partialRectangle;connectable=0;fillColor=none;top=0;left=0;bottom=0;right=0;align=left;spacingLeft=2;overflow=hidden;fontSize=11;" vertex="1" parent="iEk-QBiO7u8IQEbBDVrZ-107">
          <mxGeometry x="42" width="112" height="52" as="geometry">
            <mxRectangle width="112" height="52" as="alternateBounds" />
          </mxGeometry>
        </mxCell>
        <mxCell id="iEk-QBiO7u8IQEbBDVrZ-110" style="shape=tableRow;horizontal=0;startSize=0;swimlaneHead=0;swimlaneBody=0;fillColor=none;collapsible=0;dropTarget=0;points=[[0,0.5],[1,0.5]];portConstraint=eastwest;top=0;left=0;right=0;bottom=0;" vertex="1" parent="iEk-QBiO7u8IQEbBDVrZ-106">
          <mxGeometry y="77" width="154" height="52" as="geometry" />
        </mxCell>
        <mxCell id="iEk-QBiO7u8IQEbBDVrZ-111" value="varchar" style="shape=partialRectangle;connectable=0;fillColor=none;top=0;left=0;bottom=0;right=0;align=left;spacingLeft=2;overflow=hidden;fontSize=11;" vertex="1" parent="iEk-QBiO7u8IQEbBDVrZ-110">
          <mxGeometry width="42" height="52" as="geometry">
            <mxRectangle width="42" height="52" as="alternateBounds" />
          </mxGeometry>
        </mxCell>
        <mxCell id="iEk-QBiO7u8IQEbBDVrZ-112" value="name" style="shape=partialRectangle;connectable=0;fillColor=none;top=0;left=0;bottom=0;right=0;align=left;spacingLeft=2;overflow=hidden;fontSize=11;" vertex="1" parent="iEk-QBiO7u8IQEbBDVrZ-110">
          <mxGeometry x="42" width="112" height="52" as="geometry">
            <mxRectangle width="112" height="52" as="alternateBounds" />
          </mxGeometry>
        </mxCell>
        <mxCell id="iEk-QBiO7u8IQEbBDVrZ-113" value="COMPETENCES" style="shape=table;startSize=25;container=1;collapsible=0;childLayout=tableLayout;fixedRows=1;rowLines=1;fontStyle=1;align=center;resizeLast=1;" vertex="1" parent="1">
          <mxGeometry x="405" y="20" width="197" height="342" as="geometry" />
        </mxCell>
        <mxCell id="iEk-QBiO7u8IQEbBDVrZ-114" style="shape=tableRow;horizontal=0;startSize=0;swimlaneHead=0;swimlaneBody=0;fillColor=none;collapsible=0;dropTarget=0;points=[[0,0.5],[1,0.5]];portConstraint=eastwest;top=0;left=0;right=0;bottom=0;" vertex="1" parent="iEk-QBiO7u8IQEbBDVrZ-113">
          <mxGeometry y="25" width="197" height="45" as="geometry" />
        </mxCell>
        <mxCell id="iEk-QBiO7u8IQEbBDVrZ-115" value="int" style="shape=partialRectangle;connectable=0;fillColor=none;top=0;left=0;bottom=0;right=0;align=left;spacingLeft=2;overflow=hidden;fontSize=11;" vertex="1" parent="iEk-QBiO7u8IQEbBDVrZ-114">
          <mxGeometry width="48" height="45" as="geometry">
            <mxRectangle width="48" height="45" as="alternateBounds" />
          </mxGeometry>
        </mxCell>
        <mxCell id="iEk-QBiO7u8IQEbBDVrZ-116" value="id" style="shape=partialRectangle;connectable=0;fillColor=none;top=0;left=0;bottom=0;right=0;align=left;spacingLeft=2;overflow=hidden;fontSize=11;" vertex="1" parent="iEk-QBiO7u8IQEbBDVrZ-114">
          <mxGeometry x="48" width="149" height="45" as="geometry">
            <mxRectangle width="149" height="45" as="alternateBounds" />
          </mxGeometry>
        </mxCell>
        <mxCell id="iEk-QBiO7u8IQEbBDVrZ-117" style="shape=tableRow;horizontal=0;startSize=0;swimlaneHead=0;swimlaneBody=0;fillColor=none;collapsible=0;dropTarget=0;points=[[0,0.5],[1,0.5]];portConstraint=eastwest;top=0;left=0;right=0;bottom=0;" vertex="1" parent="iEk-QBiO7u8IQEbBDVrZ-113">
          <mxGeometry y="70" width="197" height="45" as="geometry" />
        </mxCell>
        <mxCell id="iEk-QBiO7u8IQEbBDVrZ-118" value="varchar" style="shape=partialRectangle;connectable=0;fillColor=none;top=0;left=0;bottom=0;right=0;align=left;spacingLeft=2;overflow=hidden;fontSize=11;" vertex="1" parent="iEk-QBiO7u8IQEbBDVrZ-117">
          <mxGeometry width="48" height="45" as="geometry">
            <mxRectangle width="48" height="45" as="alternateBounds" />
          </mxGeometry>
        </mxCell>
        <mxCell id="iEk-QBiO7u8IQEbBDVrZ-119" value="name" style="shape=partialRectangle;connectable=0;fillColor=none;top=0;left=0;bottom=0;right=0;align=left;spacingLeft=2;overflow=hidden;fontSize=11;" vertex="1" parent="iEk-QBiO7u8IQEbBDVrZ-117">
          <mxGeometry x="48" width="149" height="45" as="geometry">
            <mxRectangle width="149" height="45" as="alternateBounds" />
          </mxGeometry>
        </mxCell>
        <mxCell id="iEk-QBiO7u8IQEbBDVrZ-120" style="shape=tableRow;horizontal=0;startSize=0;swimlaneHead=0;swimlaneBody=0;fillColor=none;collapsible=0;dropTarget=0;points=[[0,0.5],[1,0.5]];portConstraint=eastwest;top=0;left=0;right=0;bottom=0;" vertex="1" parent="iEk-QBiO7u8IQEbBDVrZ-113">
          <mxGeometry y="115" width="197" height="45" as="geometry" />
        </mxCell>
        <mxCell id="iEk-QBiO7u8IQEbBDVrZ-121" value="boolean" style="shape=partialRectangle;connectable=0;fillColor=none;top=0;left=0;bottom=0;right=0;align=left;spacingLeft=2;overflow=hidden;fontSize=11;" vertex="1" parent="iEk-QBiO7u8IQEbBDVrZ-120">
          <mxGeometry width="48" height="45" as="geometry">
            <mxRectangle width="48" height="45" as="alternateBounds" />
          </mxGeometry>
        </mxCell>
        <mxCell id="iEk-QBiO7u8IQEbBDVrZ-122" value="is_active" style="shape=partialRectangle;connectable=0;fillColor=none;top=0;left=0;bottom=0;right=0;align=left;spacingLeft=2;overflow=hidden;fontSize=11;" vertex="1" parent="iEk-QBiO7u8IQEbBDVrZ-120">
          <mxGeometry x="48" width="149" height="45" as="geometry">
            <mxRectangle width="149" height="45" as="alternateBounds" />
          </mxGeometry>
        </mxCell>
        <mxCell id="iEk-QBiO7u8IQEbBDVrZ-123" style="shape=tableRow;horizontal=0;startSize=0;swimlaneHead=0;swimlaneBody=0;fillColor=none;collapsible=0;dropTarget=0;points=[[0,0.5],[1,0.5]];portConstraint=eastwest;top=0;left=0;right=0;bottom=0;" vertex="1" parent="iEk-QBiO7u8IQEbBDVrZ-113">
          <mxGeometry y="160" width="197" height="45" as="geometry" />
        </mxCell>
        <mxCell id="iEk-QBiO7u8IQEbBDVrZ-124" value="boolean" style="shape=partialRectangle;connectable=0;fillColor=none;top=0;left=0;bottom=0;right=0;align=left;spacingLeft=2;overflow=hidden;fontSize=11;" vertex="1" parent="iEk-QBiO7u8IQEbBDVrZ-123">
          <mxGeometry width="48" height="45" as="geometry">
            <mxRectangle width="48" height="45" as="alternateBounds" />
          </mxGeometry>
        </mxCell>
        <mxCell id="iEk-QBiO7u8IQEbBDVrZ-125" value="is_archived" style="shape=partialRectangle;connectable=0;fillColor=none;top=0;left=0;bottom=0;right=0;align=left;spacingLeft=2;overflow=hidden;fontSize=11;" vertex="1" parent="iEk-QBiO7u8IQEbBDVrZ-123">
          <mxGeometry x="48" width="149" height="45" as="geometry">
            <mxRectangle width="149" height="45" as="alternateBounds" />
          </mxGeometry>
        </mxCell>
        <mxCell id="iEk-QBiO7u8IQEbBDVrZ-126" style="shape=tableRow;horizontal=0;startSize=0;swimlaneHead=0;swimlaneBody=0;fillColor=none;collapsible=0;dropTarget=0;points=[[0,0.5],[1,0.5]];portConstraint=eastwest;top=0;left=0;right=0;bottom=0;" vertex="1" parent="iEk-QBiO7u8IQEbBDVrZ-113">
          <mxGeometry y="205" width="197" height="45" as="geometry" />
        </mxCell>
        <mxCell id="iEk-QBiO7u8IQEbBDVrZ-127" value="datetime" style="shape=partialRectangle;connectable=0;fillColor=none;top=0;left=0;bottom=0;right=0;align=left;spacingLeft=2;overflow=hidden;fontSize=11;" vertex="1" parent="iEk-QBiO7u8IQEbBDVrZ-126">
          <mxGeometry width="48" height="45" as="geometry">
            <mxRectangle width="48" height="45" as="alternateBounds" />
          </mxGeometry>
        </mxCell>
        <mxCell id="iEk-QBiO7u8IQEbBDVrZ-128" value="deleted_at" style="shape=partialRectangle;connectable=0;fillColor=none;top=0;left=0;bottom=0;right=0;align=left;spacingLeft=2;overflow=hidden;fontSize=11;" vertex="1" parent="iEk-QBiO7u8IQEbBDVrZ-126">
          <mxGeometry x="48" width="149" height="45" as="geometry">
            <mxRectangle width="149" height="45" as="alternateBounds" />
          </mxGeometry>
        </mxCell>
        <mxCell id="iEk-QBiO7u8IQEbBDVrZ-129" style="shape=tableRow;horizontal=0;startSize=0;swimlaneHead=0;swimlaneBody=0;fillColor=none;collapsible=0;dropTarget=0;points=[[0,0.5],[1,0.5]];portConstraint=eastwest;top=0;left=0;right=0;bottom=0;" vertex="1" parent="iEk-QBiO7u8IQEbBDVrZ-113">
          <mxGeometry y="250" width="197" height="45" as="geometry" />
        </mxCell>
        <mxCell id="iEk-QBiO7u8IQEbBDVrZ-130" value="datetime" style="shape=partialRectangle;connectable=0;fillColor=none;top=0;left=0;bottom=0;right=0;align=left;spacingLeft=2;overflow=hidden;fontSize=11;" vertex="1" parent="iEk-QBiO7u8IQEbBDVrZ-129">
          <mxGeometry width="48" height="45" as="geometry">
            <mxRectangle width="48" height="45" as="alternateBounds" />
          </mxGeometry>
        </mxCell>
        <mxCell id="iEk-QBiO7u8IQEbBDVrZ-131" value="created_at" style="shape=partialRectangle;connectable=0;fillColor=none;top=0;left=0;bottom=0;right=0;align=left;spacingLeft=2;overflow=hidden;fontSize=11;" vertex="1" parent="iEk-QBiO7u8IQEbBDVrZ-129">
          <mxGeometry x="48" width="149" height="45" as="geometry">
            <mxRectangle width="149" height="45" as="alternateBounds" />
          </mxGeometry>
        </mxCell>
        <mxCell id="iEk-QBiO7u8IQEbBDVrZ-132" style="shape=tableRow;horizontal=0;startSize=0;swimlaneHead=0;swimlaneBody=0;fillColor=none;collapsible=0;dropTarget=0;points=[[0,0.5],[1,0.5]];portConstraint=eastwest;top=0;left=0;right=0;bottom=0;" vertex="1" parent="iEk-QBiO7u8IQEbBDVrZ-113">
          <mxGeometry y="295" width="197" height="45" as="geometry" />
        </mxCell>
        <mxCell id="iEk-QBiO7u8IQEbBDVrZ-133" value="datetime" style="shape=partialRectangle;connectable=0;fillColor=none;top=0;left=0;bottom=0;right=0;align=left;spacingLeft=2;overflow=hidden;fontSize=11;" vertex="1" parent="iEk-QBiO7u8IQEbBDVrZ-132">
          <mxGeometry width="48" height="45" as="geometry">
            <mxRectangle width="48" height="45" as="alternateBounds" />
          </mxGeometry>
        </mxCell>
        <mxCell id="iEk-QBiO7u8IQEbBDVrZ-134" value="updated_at" style="shape=partialRectangle;connectable=0;fillColor=none;top=0;left=0;bottom=0;right=0;align=left;spacingLeft=2;overflow=hidden;fontSize=11;" vertex="1" parent="iEk-QBiO7u8IQEbBDVrZ-132">
          <mxGeometry x="48" width="149" height="45" as="geometry">
            <mxRectangle width="149" height="45" as="alternateBounds" />
          </mxGeometry>
        </mxCell>
        <mxCell id="iEk-QBiO7u8IQEbBDVrZ-135" value="CONSTRUCTION_SITES" style="shape=table;startSize=25;container=1;collapsible=0;childLayout=tableLayout;fixedRows=1;rowLines=1;fontStyle=1;align=center;resizeLast=1;" vertex="1" parent="1">
          <mxGeometry x="20" y="1080" width="261" height="641" as="geometry" />
        </mxCell>
        <mxCell id="iEk-QBiO7u8IQEbBDVrZ-136" style="shape=tableRow;horizontal=0;startSize=0;swimlaneHead=0;swimlaneBody=0;fillColor=none;collapsible=0;dropTarget=0;points=[[0,0.5],[1,0.5]];portConstraint=eastwest;top=0;left=0;right=0;bottom=0;" vertex="1" parent="iEk-QBiO7u8IQEbBDVrZ-135">
          <mxGeometry y="25" width="261" height="44" as="geometry" />
        </mxCell>
        <mxCell id="iEk-QBiO7u8IQEbBDVrZ-137" value="int" style="shape=partialRectangle;connectable=0;fillColor=none;top=0;left=0;bottom=0;right=0;align=left;spacingLeft=2;overflow=hidden;fontSize=11;" vertex="1" parent="iEk-QBiO7u8IQEbBDVrZ-136">
          <mxGeometry width="48" height="44" as="geometry">
            <mxRectangle width="48" height="44" as="alternateBounds" />
          </mxGeometry>
        </mxCell>
        <mxCell id="iEk-QBiO7u8IQEbBDVrZ-138" value="construction_site_id" style="shape=partialRectangle;connectable=0;fillColor=none;top=0;left=0;bottom=0;right=0;align=left;spacingLeft=2;overflow=hidden;fontSize=11;" vertex="1" parent="iEk-QBiO7u8IQEbBDVrZ-136">
          <mxGeometry x="48" width="213" height="44" as="geometry">
            <mxRectangle width="213" height="44" as="alternateBounds" />
          </mxGeometry>
        </mxCell>
        <mxCell id="iEk-QBiO7u8IQEbBDVrZ-139" style="shape=tableRow;horizontal=0;startSize=0;swimlaneHead=0;swimlaneBody=0;fillColor=none;collapsible=0;dropTarget=0;points=[[0,0.5],[1,0.5]];portConstraint=eastwest;top=0;left=0;right=0;bottom=0;" vertex="1" parent="iEk-QBiO7u8IQEbBDVrZ-135">
          <mxGeometry y="69" width="261" height="44" as="geometry" />
        </mxCell>
        <mxCell id="iEk-QBiO7u8IQEbBDVrZ-140" value="varchar" style="shape=partialRectangle;connectable=0;fillColor=none;top=0;left=0;bottom=0;right=0;align=left;spacingLeft=2;overflow=hidden;fontSize=11;" vertex="1" parent="iEk-QBiO7u8IQEbBDVrZ-139">
          <mxGeometry width="48" height="44" as="geometry">
            <mxRectangle width="48" height="44" as="alternateBounds" />
          </mxGeometry>
        </mxCell>
        <mxCell id="iEk-QBiO7u8IQEbBDVrZ-141" value="name" style="shape=partialRectangle;connectable=0;fillColor=none;top=0;left=0;bottom=0;right=0;align=left;spacingLeft=2;overflow=hidden;fontSize=11;" vertex="1" parent="iEk-QBiO7u8IQEbBDVrZ-139">
          <mxGeometry x="48" width="213" height="44" as="geometry">
            <mxRectangle width="213" height="44" as="alternateBounds" />
          </mxGeometry>
        </mxCell>
        <mxCell id="iEk-QBiO7u8IQEbBDVrZ-142" style="shape=tableRow;horizontal=0;startSize=0;swimlaneHead=0;swimlaneBody=0;fillColor=none;collapsible=0;dropTarget=0;points=[[0,0.5],[1,0.5]];portConstraint=eastwest;top=0;left=0;right=0;bottom=0;" vertex="1" parent="iEk-QBiO7u8IQEbBDVrZ-135">
          <mxGeometry y="113" width="261" height="44" as="geometry" />
        </mxCell>
        <mxCell id="iEk-QBiO7u8IQEbBDVrZ-143" value="varchar" style="shape=partialRectangle;connectable=0;fillColor=none;top=0;left=0;bottom=0;right=0;align=left;spacingLeft=2;overflow=hidden;fontSize=11;" vertex="1" parent="iEk-QBiO7u8IQEbBDVrZ-142">
          <mxGeometry width="48" height="44" as="geometry">
            <mxRectangle width="48" height="44" as="alternateBounds" />
          </mxGeometry>
        </mxCell>
        <mxCell id="iEk-QBiO7u8IQEbBDVrZ-144" value="state" style="shape=partialRectangle;connectable=0;fillColor=none;top=0;left=0;bottom=0;right=0;align=left;spacingLeft=2;overflow=hidden;fontSize=11;" vertex="1" parent="iEk-QBiO7u8IQEbBDVrZ-142">
          <mxGeometry x="48" width="213" height="44" as="geometry">
            <mxRectangle width="213" height="44" as="alternateBounds" />
          </mxGeometry>
        </mxCell>
        <mxCell id="iEk-QBiO7u8IQEbBDVrZ-145" style="shape=tableRow;horizontal=0;startSize=0;swimlaneHead=0;swimlaneBody=0;fillColor=none;collapsible=0;dropTarget=0;points=[[0,0.5],[1,0.5]];portConstraint=eastwest;top=0;left=0;right=0;bottom=0;" vertex="1" parent="iEk-QBiO7u8IQEbBDVrZ-135">
          <mxGeometry y="157" width="261" height="44" as="geometry" />
        </mxCell>
        <mxCell id="iEk-QBiO7u8IQEbBDVrZ-146" value="text" style="shape=partialRectangle;connectable=0;fillColor=none;top=0;left=0;bottom=0;right=0;align=left;spacingLeft=2;overflow=hidden;fontSize=11;" vertex="1" parent="iEk-QBiO7u8IQEbBDVrZ-145">
          <mxGeometry width="48" height="44" as="geometry">
            <mxRectangle width="48" height="44" as="alternateBounds" />
          </mxGeometry>
        </mxCell>
        <mxCell id="iEk-QBiO7u8IQEbBDVrZ-147" value="description" style="shape=partialRectangle;connectable=0;fillColor=none;top=0;left=0;bottom=0;right=0;align=left;spacingLeft=2;overflow=hidden;fontSize=11;" vertex="1" parent="iEk-QBiO7u8IQEbBDVrZ-145">
          <mxGeometry x="48" width="213" height="44" as="geometry">
            <mxRectangle width="213" height="44" as="alternateBounds" />
          </mxGeometry>
        </mxCell>
        <mxCell id="iEk-QBiO7u8IQEbBDVrZ-148" style="shape=tableRow;horizontal=0;startSize=0;swimlaneHead=0;swimlaneBody=0;fillColor=none;collapsible=0;dropTarget=0;points=[[0,0.5],[1,0.5]];portConstraint=eastwest;top=0;left=0;right=0;bottom=0;" vertex="1" parent="iEk-QBiO7u8IQEbBDVrZ-135">
          <mxGeometry y="201" width="261" height="44" as="geometry" />
        </mxCell>
        <mxCell id="iEk-QBiO7u8IQEbBDVrZ-149" value="varchar" style="shape=partialRectangle;connectable=0;fillColor=none;top=0;left=0;bottom=0;right=0;align=left;spacingLeft=2;overflow=hidden;fontSize=11;" vertex="1" parent="iEk-QBiO7u8IQEbBDVrZ-148">
          <mxGeometry width="48" height="44" as="geometry">
            <mxRectangle width="48" height="44" as="alternateBounds" />
          </mxGeometry>
        </mxCell>
        <mxCell id="iEk-QBiO7u8IQEbBDVrZ-150" value="adresse" style="shape=partialRectangle;connectable=0;fillColor=none;top=0;left=0;bottom=0;right=0;align=left;spacingLeft=2;overflow=hidden;fontSize=11;" vertex="1" parent="iEk-QBiO7u8IQEbBDVrZ-148">
          <mxGeometry x="48" width="213" height="44" as="geometry">
            <mxRectangle width="213" height="44" as="alternateBounds" />
          </mxGeometry>
        </mxCell>
        <mxCell id="iEk-QBiO7u8IQEbBDVrZ-151" style="shape=tableRow;horizontal=0;startSize=0;swimlaneHead=0;swimlaneBody=0;fillColor=none;collapsible=0;dropTarget=0;points=[[0,0.5],[1,0.5]];portConstraint=eastwest;top=0;left=0;right=0;bottom=0;" vertex="1" parent="iEk-QBiO7u8IQEbBDVrZ-135">
          <mxGeometry y="245" width="261" height="44" as="geometry" />
        </mxCell>
        <mxCell id="iEk-QBiO7u8IQEbBDVrZ-152" value="date" style="shape=partialRectangle;connectable=0;fillColor=none;top=0;left=0;bottom=0;right=0;align=left;spacingLeft=2;overflow=hidden;fontSize=11;" vertex="1" parent="iEk-QBiO7u8IQEbBDVrZ-151">
          <mxGeometry width="48" height="44" as="geometry">
            <mxRectangle width="48" height="44" as="alternateBounds" />
          </mxGeometry>
        </mxCell>
        <mxCell id="iEk-QBiO7u8IQEbBDVrZ-153" value="start_date" style="shape=partialRectangle;connectable=0;fillColor=none;top=0;left=0;bottom=0;right=0;align=left;spacingLeft=2;overflow=hidden;fontSize=11;" vertex="1" parent="iEk-QBiO7u8IQEbBDVrZ-151">
          <mxGeometry x="48" width="213" height="44" as="geometry">
            <mxRectangle width="213" height="44" as="alternateBounds" />
          </mxGeometry>
        </mxCell>
        <mxCell id="iEk-QBiO7u8IQEbBDVrZ-154" style="shape=tableRow;horizontal=0;startSize=0;swimlaneHead=0;swimlaneBody=0;fillColor=none;collapsible=0;dropTarget=0;points=[[0,0.5],[1,0.5]];portConstraint=eastwest;top=0;left=0;right=0;bottom=0;" vertex="1" parent="iEk-QBiO7u8IQEbBDVrZ-135">
          <mxGeometry y="289" width="261" height="44" as="geometry" />
        </mxCell>
        <mxCell id="iEk-QBiO7u8IQEbBDVrZ-155" value="date" style="shape=partialRectangle;connectable=0;fillColor=none;top=0;left=0;bottom=0;right=0;align=left;spacingLeft=2;overflow=hidden;fontSize=11;" vertex="1" parent="iEk-QBiO7u8IQEbBDVrZ-154">
          <mxGeometry width="48" height="44" as="geometry">
            <mxRectangle width="48" height="44" as="alternateBounds" />
          </mxGeometry>
        </mxCell>
        <mxCell id="iEk-QBiO7u8IQEbBDVrZ-156" value="end_date" style="shape=partialRectangle;connectable=0;fillColor=none;top=0;left=0;bottom=0;right=0;align=left;spacingLeft=2;overflow=hidden;fontSize=11;" vertex="1" parent="iEk-QBiO7u8IQEbBDVrZ-154">
          <mxGeometry x="48" width="213" height="44" as="geometry">
            <mxRectangle width="213" height="44" as="alternateBounds" />
          </mxGeometry>
        </mxCell>
        <mxCell id="iEk-QBiO7u8IQEbBDVrZ-157" style="shape=tableRow;horizontal=0;startSize=0;swimlaneHead=0;swimlaneBody=0;fillColor=none;collapsible=0;dropTarget=0;points=[[0,0.5],[1,0.5]];portConstraint=eastwest;top=0;left=0;right=0;bottom=0;" vertex="1" parent="iEk-QBiO7u8IQEbBDVrZ-135">
          <mxGeometry y="333" width="261" height="44" as="geometry" />
        </mxCell>
        <mxCell id="iEk-QBiO7u8IQEbBDVrZ-158" value="time" style="shape=partialRectangle;connectable=0;fillColor=none;top=0;left=0;bottom=0;right=0;align=left;spacingLeft=2;overflow=hidden;fontSize=11;" vertex="1" parent="iEk-QBiO7u8IQEbBDVrZ-157">
          <mxGeometry width="48" height="44" as="geometry">
            <mxRectangle width="48" height="44" as="alternateBounds" />
          </mxGeometry>
        </mxCell>
        <mxCell id="iEk-QBiO7u8IQEbBDVrZ-159" value="open_time" style="shape=partialRectangle;connectable=0;fillColor=none;top=0;left=0;bottom=0;right=0;align=left;spacingLeft=2;overflow=hidden;fontSize=11;" vertex="1" parent="iEk-QBiO7u8IQEbBDVrZ-157">
          <mxGeometry x="48" width="213" height="44" as="geometry">
            <mxRectangle width="213" height="44" as="alternateBounds" />
          </mxGeometry>
        </mxCell>
        <mxCell id="iEk-QBiO7u8IQEbBDVrZ-160" style="shape=tableRow;horizontal=0;startSize=0;swimlaneHead=0;swimlaneBody=0;fillColor=none;collapsible=0;dropTarget=0;points=[[0,0.5],[1,0.5]];portConstraint=eastwest;top=0;left=0;right=0;bottom=0;" vertex="1" parent="iEk-QBiO7u8IQEbBDVrZ-135">
          <mxGeometry y="377" width="261" height="44" as="geometry" />
        </mxCell>
        <mxCell id="iEk-QBiO7u8IQEbBDVrZ-161" value="time" style="shape=partialRectangle;connectable=0;fillColor=none;top=0;left=0;bottom=0;right=0;align=left;spacingLeft=2;overflow=hidden;fontSize=11;" vertex="1" parent="iEk-QBiO7u8IQEbBDVrZ-160">
          <mxGeometry width="48" height="44" as="geometry">
            <mxRectangle width="48" height="44" as="alternateBounds" />
          </mxGeometry>
        </mxCell>
        <mxCell id="iEk-QBiO7u8IQEbBDVrZ-162" value="end_time" style="shape=partialRectangle;connectable=0;fillColor=none;top=0;left=0;bottom=0;right=0;align=left;spacingLeft=2;overflow=hidden;fontSize=11;" vertex="1" parent="iEk-QBiO7u8IQEbBDVrZ-160">
          <mxGeometry x="48" width="213" height="44" as="geometry">
            <mxRectangle width="213" height="44" as="alternateBounds" />
          </mxGeometry>
        </mxCell>
        <mxCell id="iEk-QBiO7u8IQEbBDVrZ-163" style="shape=tableRow;horizontal=0;startSize=0;swimlaneHead=0;swimlaneBody=0;fillColor=none;collapsible=0;dropTarget=0;points=[[0,0.5],[1,0.5]];portConstraint=eastwest;top=0;left=0;right=0;bottom=0;" vertex="1" parent="iEk-QBiO7u8IQEbBDVrZ-135">
          <mxGeometry y="421" width="261" height="44" as="geometry" />
        </mxCell>
        <mxCell id="iEk-QBiO7u8IQEbBDVrZ-164" value="date" style="shape=partialRectangle;connectable=0;fillColor=none;top=0;left=0;bottom=0;right=0;align=left;spacingLeft=2;overflow=hidden;fontSize=11;" vertex="1" parent="iEk-QBiO7u8IQEbBDVrZ-163">
          <mxGeometry width="48" height="44" as="geometry">
            <mxRectangle width="48" height="44" as="alternateBounds" />
          </mxGeometry>
        </mxCell>
        <mxCell id="iEk-QBiO7u8IQEbBDVrZ-165" value="date_creation" style="shape=partialRectangle;connectable=0;fillColor=none;top=0;left=0;bottom=0;right=0;align=left;spacingLeft=2;overflow=hidden;fontSize=11;" vertex="1" parent="iEk-QBiO7u8IQEbBDVrZ-163">
          <mxGeometry x="48" width="213" height="44" as="geometry">
            <mxRectangle width="213" height="44" as="alternateBounds" />
          </mxGeometry>
        </mxCell>
        <mxCell id="iEk-QBiO7u8IQEbBDVrZ-166" style="shape=tableRow;horizontal=0;startSize=0;swimlaneHead=0;swimlaneBody=0;fillColor=none;collapsible=0;dropTarget=0;points=[[0,0.5],[1,0.5]];portConstraint=eastwest;top=0;left=0;right=0;bottom=0;" vertex="1" parent="iEk-QBiO7u8IQEbBDVrZ-135">
          <mxGeometry y="465" width="261" height="44" as="geometry" />
        </mxCell>
        <mxCell id="iEk-QBiO7u8IQEbBDVrZ-167" value="varchar" style="shape=partialRectangle;connectable=0;fillColor=none;top=0;left=0;bottom=0;right=0;align=left;spacingLeft=2;overflow=hidden;fontSize=11;" vertex="1" parent="iEk-QBiO7u8IQEbBDVrZ-166">
          <mxGeometry width="48" height="44" as="geometry">
            <mxRectangle width="48" height="44" as="alternateBounds" />
          </mxGeometry>
        </mxCell>
        <mxCell id="iEk-QBiO7u8IQEbBDVrZ-168" value="image_url" style="shape=partialRectangle;connectable=0;fillColor=none;top=0;left=0;bottom=0;right=0;align=left;spacingLeft=2;overflow=hidden;fontSize=11;" vertex="1" parent="iEk-QBiO7u8IQEbBDVrZ-166">
          <mxGeometry x="48" width="213" height="44" as="geometry">
            <mxRectangle width="213" height="44" as="alternateBounds" />
          </mxGeometry>
        </mxCell>
        <mxCell id="iEk-QBiO7u8IQEbBDVrZ-169" style="shape=tableRow;horizontal=0;startSize=0;swimlaneHead=0;swimlaneBody=0;fillColor=none;collapsible=0;dropTarget=0;points=[[0,0.5],[1,0.5]];portConstraint=eastwest;top=0;left=0;right=0;bottom=0;" vertex="1" parent="iEk-QBiO7u8IQEbBDVrZ-135">
          <mxGeometry y="509" width="261" height="44" as="geometry" />
        </mxCell>
        <mxCell id="iEk-QBiO7u8IQEbBDVrZ-170" value="int" style="shape=partialRectangle;connectable=0;fillColor=none;top=0;left=0;bottom=0;right=0;align=left;spacingLeft=2;overflow=hidden;fontSize=11;" vertex="1" parent="iEk-QBiO7u8IQEbBDVrZ-169">
          <mxGeometry width="48" height="44" as="geometry">
            <mxRectangle width="48" height="44" as="alternateBounds" />
          </mxGeometry>
        </mxCell>
        <mxCell id="iEk-QBiO7u8IQEbBDVrZ-171" value="chef_de_projet_id" style="shape=partialRectangle;connectable=0;fillColor=none;top=0;left=0;bottom=0;right=0;align=left;spacingLeft=2;overflow=hidden;fontSize=11;" vertex="1" parent="iEk-QBiO7u8IQEbBDVrZ-169">
          <mxGeometry x="48" width="213" height="44" as="geometry">
            <mxRectangle width="213" height="44" as="alternateBounds" />
          </mxGeometry>
        </mxCell>
        <mxCell id="iEk-QBiO7u8IQEbBDVrZ-172" style="shape=tableRow;horizontal=0;startSize=0;swimlaneHead=0;swimlaneBody=0;fillColor=none;collapsible=0;dropTarget=0;points=[[0,0.5],[1,0.5]];portConstraint=eastwest;top=0;left=0;right=0;bottom=0;" vertex="1" parent="iEk-QBiO7u8IQEbBDVrZ-135">
          <mxGeometry y="553" width="261" height="44" as="geometry" />
        </mxCell>
        <mxCell id="iEk-QBiO7u8IQEbBDVrZ-173" value="datetime" style="shape=partialRectangle;connectable=0;fillColor=none;top=0;left=0;bottom=0;right=0;align=left;spacingLeft=2;overflow=hidden;fontSize=11;" vertex="1" parent="iEk-QBiO7u8IQEbBDVrZ-172">
          <mxGeometry width="48" height="44" as="geometry">
            <mxRectangle width="48" height="44" as="alternateBounds" />
          </mxGeometry>
        </mxCell>
        <mxCell id="iEk-QBiO7u8IQEbBDVrZ-174" value="created_at" style="shape=partialRectangle;connectable=0;fillColor=none;top=0;left=0;bottom=0;right=0;align=left;spacingLeft=2;overflow=hidden;fontSize=11;" vertex="1" parent="iEk-QBiO7u8IQEbBDVrZ-172">
          <mxGeometry x="48" width="213" height="44" as="geometry">
            <mxRectangle width="213" height="44" as="alternateBounds" />
          </mxGeometry>
        </mxCell>
        <mxCell id="iEk-QBiO7u8IQEbBDVrZ-175" style="shape=tableRow;horizontal=0;startSize=0;swimlaneHead=0;swimlaneBody=0;fillColor=none;collapsible=0;dropTarget=0;points=[[0,0.5],[1,0.5]];portConstraint=eastwest;top=0;left=0;right=0;bottom=0;" vertex="1" parent="iEk-QBiO7u8IQEbBDVrZ-135">
          <mxGeometry y="597" width="261" height="44" as="geometry" />
        </mxCell>
        <mxCell id="iEk-QBiO7u8IQEbBDVrZ-176" value="datetime" style="shape=partialRectangle;connectable=0;fillColor=none;top=0;left=0;bottom=0;right=0;align=left;spacingLeft=2;overflow=hidden;fontSize=11;" vertex="1" parent="iEk-QBiO7u8IQEbBDVrZ-175">
          <mxGeometry width="48" height="44" as="geometry">
            <mxRectangle width="48" height="44" as="alternateBounds" />
          </mxGeometry>
        </mxCell>
        <mxCell id="iEk-QBiO7u8IQEbBDVrZ-177" value="updated_at" style="shape=partialRectangle;connectable=0;fillColor=none;top=0;left=0;bottom=0;right=0;align=left;spacingLeft=2;overflow=hidden;fontSize=11;" vertex="1" parent="iEk-QBiO7u8IQEbBDVrZ-175">
          <mxGeometry x="48" width="213" height="44" as="geometry">
            <mxRectangle width="213" height="44" as="alternateBounds" />
          </mxGeometry>
        </mxCell>
        <mxCell id="iEk-QBiO7u8IQEbBDVrZ-178" value="TASKS" style="shape=table;startSize=25;container=1;collapsible=0;childLayout=tableLayout;fixedRows=1;rowLines=1;fontStyle=1;align=center;resizeLast=1;" vertex="1" parent="1">
          <mxGeometry x="20" y="1824" width="261" height="513" as="geometry" />
        </mxCell>
        <mxCell id="iEk-QBiO7u8IQEbBDVrZ-179" style="shape=tableRow;horizontal=0;startSize=0;swimlaneHead=0;swimlaneBody=0;fillColor=none;collapsible=0;dropTarget=0;points=[[0,0.5],[1,0.5]];portConstraint=eastwest;top=0;left=0;right=0;bottom=0;" vertex="1" parent="iEk-QBiO7u8IQEbBDVrZ-178">
          <mxGeometry y="25" width="261" height="44" as="geometry" />
        </mxCell>
        <mxCell id="iEk-QBiO7u8IQEbBDVrZ-180" value="int" style="shape=partialRectangle;connectable=0;fillColor=none;top=0;left=0;bottom=0;right=0;align=left;spacingLeft=2;overflow=hidden;fontSize=11;" vertex="1" parent="iEk-QBiO7u8IQEbBDVrZ-179">
          <mxGeometry width="48" height="44" as="geometry">
            <mxRectangle width="48" height="44" as="alternateBounds" />
          </mxGeometry>
        </mxCell>
        <mxCell id="iEk-QBiO7u8IQEbBDVrZ-181" value="task_id" style="shape=partialRectangle;connectable=0;fillColor=none;top=0;left=0;bottom=0;right=0;align=left;spacingLeft=2;overflow=hidden;fontSize=11;" vertex="1" parent="iEk-QBiO7u8IQEbBDVrZ-179">
          <mxGeometry x="48" width="213" height="44" as="geometry">
            <mxRectangle width="213" height="44" as="alternateBounds" />
          </mxGeometry>
        </mxCell>
        <mxCell id="iEk-QBiO7u8IQEbBDVrZ-182" style="shape=tableRow;horizontal=0;startSize=0;swimlaneHead=0;swimlaneBody=0;fillColor=none;collapsible=0;dropTarget=0;points=[[0,0.5],[1,0.5]];portConstraint=eastwest;top=0;left=0;right=0;bottom=0;" vertex="1" parent="iEk-QBiO7u8IQEbBDVrZ-178">
          <mxGeometry y="69" width="261" height="44" as="geometry" />
        </mxCell>
        <mxCell id="iEk-QBiO7u8IQEbBDVrZ-183" value="varchar" style="shape=partialRectangle;connectable=0;fillColor=none;top=0;left=0;bottom=0;right=0;align=left;spacingLeft=2;overflow=hidden;fontSize=11;" vertex="1" parent="iEk-QBiO7u8IQEbBDVrZ-182">
          <mxGeometry width="48" height="44" as="geometry">
            <mxRectangle width="48" height="44" as="alternateBounds" />
          </mxGeometry>
        </mxCell>
        <mxCell id="iEk-QBiO7u8IQEbBDVrZ-184" value="name" style="shape=partialRectangle;connectable=0;fillColor=none;top=0;left=0;bottom=0;right=0;align=left;spacingLeft=2;overflow=hidden;fontSize=11;" vertex="1" parent="iEk-QBiO7u8IQEbBDVrZ-182">
          <mxGeometry x="48" width="213" height="44" as="geometry">
            <mxRectangle width="213" height="44" as="alternateBounds" />
          </mxGeometry>
        </mxCell>
        <mxCell id="iEk-QBiO7u8IQEbBDVrZ-185" style="shape=tableRow;horizontal=0;startSize=0;swimlaneHead=0;swimlaneBody=0;fillColor=none;collapsible=0;dropTarget=0;points=[[0,0.5],[1,0.5]];portConstraint=eastwest;top=0;left=0;right=0;bottom=0;" vertex="1" parent="iEk-QBiO7u8IQEbBDVrZ-178">
          <mxGeometry y="113" width="261" height="44" as="geometry" />
        </mxCell>
        <mxCell id="iEk-QBiO7u8IQEbBDVrZ-186" value="text" style="shape=partialRectangle;connectable=0;fillColor=none;top=0;left=0;bottom=0;right=0;align=left;spacingLeft=2;overflow=hidden;fontSize=11;" vertex="1" parent="iEk-QBiO7u8IQEbBDVrZ-185">
          <mxGeometry width="48" height="44" as="geometry">
            <mxRectangle width="48" height="44" as="alternateBounds" />
          </mxGeometry>
        </mxCell>
        <mxCell id="iEk-QBiO7u8IQEbBDVrZ-187" value="description" style="shape=partialRectangle;connectable=0;fillColor=none;top=0;left=0;bottom=0;right=0;align=left;spacingLeft=2;overflow=hidden;fontSize=11;" vertex="1" parent="iEk-QBiO7u8IQEbBDVrZ-185">
          <mxGeometry x="48" width="213" height="44" as="geometry">
            <mxRectangle width="213" height="44" as="alternateBounds" />
          </mxGeometry>
        </mxCell>
        <mxCell id="iEk-QBiO7u8IQEbBDVrZ-188" style="shape=tableRow;horizontal=0;startSize=0;swimlaneHead=0;swimlaneBody=0;fillColor=none;collapsible=0;dropTarget=0;points=[[0,0.5],[1,0.5]];portConstraint=eastwest;top=0;left=0;right=0;bottom=0;" vertex="1" parent="iEk-QBiO7u8IQEbBDVrZ-178">
          <mxGeometry y="157" width="261" height="44" as="geometry" />
        </mxCell>
        <mxCell id="iEk-QBiO7u8IQEbBDVrZ-189" value="varchar" style="shape=partialRectangle;connectable=0;fillColor=none;top=0;left=0;bottom=0;right=0;align=left;spacingLeft=2;overflow=hidden;fontSize=11;" vertex="1" parent="iEk-QBiO7u8IQEbBDVrZ-188">
          <mxGeometry width="48" height="44" as="geometry">
            <mxRectangle width="48" height="44" as="alternateBounds" />
          </mxGeometry>
        </mxCell>
        <mxCell id="iEk-QBiO7u8IQEbBDVrZ-190" value="status" style="shape=partialRectangle;connectable=0;fillColor=none;top=0;left=0;bottom=0;right=0;align=left;spacingLeft=2;overflow=hidden;fontSize=11;" vertex="1" parent="iEk-QBiO7u8IQEbBDVrZ-188">
          <mxGeometry x="48" width="213" height="44" as="geometry">
            <mxRectangle width="213" height="44" as="alternateBounds" />
          </mxGeometry>
        </mxCell>
        <mxCell id="iEk-QBiO7u8IQEbBDVrZ-191" style="shape=tableRow;horizontal=0;startSize=0;swimlaneHead=0;swimlaneBody=0;fillColor=none;collapsible=0;dropTarget=0;points=[[0,0.5],[1,0.5]];portConstraint=eastwest;top=0;left=0;right=0;bottom=0;" vertex="1" parent="iEk-QBiO7u8IQEbBDVrZ-178">
          <mxGeometry y="201" width="261" height="44" as="geometry" />
        </mxCell>
        <mxCell id="iEk-QBiO7u8IQEbBDVrZ-192" value="datetime" style="shape=partialRectangle;connectable=0;fillColor=none;top=0;left=0;bottom=0;right=0;align=left;spacingLeft=2;overflow=hidden;fontSize=11;" vertex="1" parent="iEk-QBiO7u8IQEbBDVrZ-191">
          <mxGeometry width="48" height="44" as="geometry">
            <mxRectangle width="48" height="44" as="alternateBounds" />
          </mxGeometry>
        </mxCell>
        <mxCell id="iEk-QBiO7u8IQEbBDVrZ-193" value="creation_date" style="shape=partialRectangle;connectable=0;fillColor=none;top=0;left=0;bottom=0;right=0;align=left;spacingLeft=2;overflow=hidden;fontSize=11;" vertex="1" parent="iEk-QBiO7u8IQEbBDVrZ-191">
          <mxGeometry x="48" width="213" height="44" as="geometry">
            <mxRectangle width="213" height="44" as="alternateBounds" />
          </mxGeometry>
        </mxCell>
        <mxCell id="iEk-QBiO7u8IQEbBDVrZ-194" style="shape=tableRow;horizontal=0;startSize=0;swimlaneHead=0;swimlaneBody=0;fillColor=none;collapsible=0;dropTarget=0;points=[[0,0.5],[1,0.5]];portConstraint=eastwest;top=0;left=0;right=0;bottom=0;" vertex="1" parent="iEk-QBiO7u8IQEbBDVrZ-178">
          <mxGeometry y="245" width="261" height="44" as="geometry" />
        </mxCell>
        <mxCell id="iEk-QBiO7u8IQEbBDVrZ-195" value="datetime" style="shape=partialRectangle;connectable=0;fillColor=none;top=0;left=0;bottom=0;right=0;align=left;spacingLeft=2;overflow=hidden;fontSize=11;" vertex="1" parent="iEk-QBiO7u8IQEbBDVrZ-194">
          <mxGeometry width="48" height="44" as="geometry">
            <mxRectangle width="48" height="44" as="alternateBounds" />
          </mxGeometry>
        </mxCell>
        <mxCell id="iEk-QBiO7u8IQEbBDVrZ-196" value="start_date" style="shape=partialRectangle;connectable=0;fillColor=none;top=0;left=0;bottom=0;right=0;align=left;spacingLeft=2;overflow=hidden;fontSize=11;" vertex="1" parent="iEk-QBiO7u8IQEbBDVrZ-194">
          <mxGeometry x="48" width="213" height="44" as="geometry">
            <mxRectangle width="213" height="44" as="alternateBounds" />
          </mxGeometry>
        </mxCell>
        <mxCell id="iEk-QBiO7u8IQEbBDVrZ-197" style="shape=tableRow;horizontal=0;startSize=0;swimlaneHead=0;swimlaneBody=0;fillColor=none;collapsible=0;dropTarget=0;points=[[0,0.5],[1,0.5]];portConstraint=eastwest;top=0;left=0;right=0;bottom=0;" vertex="1" parent="iEk-QBiO7u8IQEbBDVrZ-178">
          <mxGeometry y="289" width="261" height="44" as="geometry" />
        </mxCell>
        <mxCell id="iEk-QBiO7u8IQEbBDVrZ-198" value="datetime" style="shape=partialRectangle;connectable=0;fillColor=none;top=0;left=0;bottom=0;right=0;align=left;spacingLeft=2;overflow=hidden;fontSize=11;" vertex="1" parent="iEk-QBiO7u8IQEbBDVrZ-197">
          <mxGeometry width="48" height="44" as="geometry">
            <mxRectangle width="48" height="44" as="alternateBounds" />
          </mxGeometry>
        </mxCell>
        <mxCell id="iEk-QBiO7u8IQEbBDVrZ-199" value="end_date" style="shape=partialRectangle;connectable=0;fillColor=none;top=0;left=0;bottom=0;right=0;align=left;spacingLeft=2;overflow=hidden;fontSize=11;" vertex="1" parent="iEk-QBiO7u8IQEbBDVrZ-197">
          <mxGeometry x="48" width="213" height="44" as="geometry">
            <mxRectangle width="213" height="44" as="alternateBounds" />
          </mxGeometry>
        </mxCell>
        <mxCell id="iEk-QBiO7u8IQEbBDVrZ-200" style="shape=tableRow;horizontal=0;startSize=0;swimlaneHead=0;swimlaneBody=0;fillColor=none;collapsible=0;dropTarget=0;points=[[0,0.5],[1,0.5]];portConstraint=eastwest;top=0;left=0;right=0;bottom=0;" vertex="1" parent="iEk-QBiO7u8IQEbBDVrZ-178">
          <mxGeometry y="333" width="261" height="44" as="geometry" />
        </mxCell>
        <mxCell id="iEk-QBiO7u8IQEbBDVrZ-201" value="text" style="shape=partialRectangle;connectable=0;fillColor=none;top=0;left=0;bottom=0;right=0;align=left;spacingLeft=2;overflow=hidden;fontSize=11;" vertex="1" parent="iEk-QBiO7u8IQEbBDVrZ-200">
          <mxGeometry width="48" height="44" as="geometry">
            <mxRectangle width="48" height="44" as="alternateBounds" />
          </mxGeometry>
        </mxCell>
        <mxCell id="iEk-QBiO7u8IQEbBDVrZ-202" value="assignees" style="shape=partialRectangle;connectable=0;fillColor=none;top=0;left=0;bottom=0;right=0;align=left;spacingLeft=2;overflow=hidden;fontSize=11;" vertex="1" parent="iEk-QBiO7u8IQEbBDVrZ-200">
          <mxGeometry x="48" width="213" height="44" as="geometry">
            <mxRectangle width="213" height="44" as="alternateBounds" />
          </mxGeometry>
        </mxCell>
        <mxCell id="iEk-QBiO7u8IQEbBDVrZ-203" style="shape=tableRow;horizontal=0;startSize=0;swimlaneHead=0;swimlaneBody=0;fillColor=none;collapsible=0;dropTarget=0;points=[[0,0.5],[1,0.5]];portConstraint=eastwest;top=0;left=0;right=0;bottom=0;" vertex="1" parent="iEk-QBiO7u8IQEbBDVrZ-178">
          <mxGeometry y="377" width="261" height="44" as="geometry" />
        </mxCell>
        <mxCell id="iEk-QBiO7u8IQEbBDVrZ-204" value="int" style="shape=partialRectangle;connectable=0;fillColor=none;top=0;left=0;bottom=0;right=0;align=left;spacingLeft=2;overflow=hidden;fontSize=11;" vertex="1" parent="iEk-QBiO7u8IQEbBDVrZ-203">
          <mxGeometry width="48" height="44" as="geometry">
            <mxRectangle width="48" height="44" as="alternateBounds" />
          </mxGeometry>
        </mxCell>
        <mxCell id="iEk-QBiO7u8IQEbBDVrZ-205" value="construction_site_id" style="shape=partialRectangle;connectable=0;fillColor=none;top=0;left=0;bottom=0;right=0;align=left;spacingLeft=2;overflow=hidden;fontSize=11;" vertex="1" parent="iEk-QBiO7u8IQEbBDVrZ-203">
          <mxGeometry x="48" width="213" height="44" as="geometry">
            <mxRectangle width="213" height="44" as="alternateBounds" />
          </mxGeometry>
        </mxCell>
        <mxCell id="iEk-QBiO7u8IQEbBDVrZ-206" style="shape=tableRow;horizontal=0;startSize=0;swimlaneHead=0;swimlaneBody=0;fillColor=none;collapsible=0;dropTarget=0;points=[[0,0.5],[1,0.5]];portConstraint=eastwest;top=0;left=0;right=0;bottom=0;" vertex="1" parent="iEk-QBiO7u8IQEbBDVrZ-178">
          <mxGeometry y="421" width="261" height="44" as="geometry" />
        </mxCell>
        <mxCell id="iEk-QBiO7u8IQEbBDVrZ-207" value="datetime" style="shape=partialRectangle;connectable=0;fillColor=none;top=0;left=0;bottom=0;right=0;align=left;spacingLeft=2;overflow=hidden;fontSize=11;" vertex="1" parent="iEk-QBiO7u8IQEbBDVrZ-206">
          <mxGeometry width="48" height="44" as="geometry">
            <mxRectangle width="48" height="44" as="alternateBounds" />
          </mxGeometry>
        </mxCell>
        <mxCell id="iEk-QBiO7u8IQEbBDVrZ-208" value="created_at" style="shape=partialRectangle;connectable=0;fillColor=none;top=0;left=0;bottom=0;right=0;align=left;spacingLeft=2;overflow=hidden;fontSize=11;" vertex="1" parent="iEk-QBiO7u8IQEbBDVrZ-206">
          <mxGeometry x="48" width="213" height="44" as="geometry">
            <mxRectangle width="213" height="44" as="alternateBounds" />
          </mxGeometry>
        </mxCell>
        <mxCell id="iEk-QBiO7u8IQEbBDVrZ-209" style="shape=tableRow;horizontal=0;startSize=0;swimlaneHead=0;swimlaneBody=0;fillColor=none;collapsible=0;dropTarget=0;points=[[0,0.5],[1,0.5]];portConstraint=eastwest;top=0;left=0;right=0;bottom=0;" vertex="1" parent="iEk-QBiO7u8IQEbBDVrZ-178">
          <mxGeometry y="465" width="261" height="44" as="geometry" />
        </mxCell>
        <mxCell id="iEk-QBiO7u8IQEbBDVrZ-210" value="datetime" style="shape=partialRectangle;connectable=0;fillColor=none;top=0;left=0;bottom=0;right=0;align=left;spacingLeft=2;overflow=hidden;fontSize=11;" vertex="1" parent="iEk-QBiO7u8IQEbBDVrZ-209">
          <mxGeometry width="48" height="44" as="geometry">
            <mxRectangle width="48" height="44" as="alternateBounds" />
          </mxGeometry>
        </mxCell>
        <mxCell id="iEk-QBiO7u8IQEbBDVrZ-211" value="updated_at" style="shape=partialRectangle;connectable=0;fillColor=none;top=0;left=0;bottom=0;right=0;align=left;spacingLeft=2;overflow=hidden;fontSize=11;" vertex="1" parent="iEk-QBiO7u8IQEbBDVrZ-209">
          <mxGeometry x="48" width="213" height="44" as="geometry">
            <mxRectangle width="213" height="44" as="alternateBounds" />
          </mxGeometry>
        </mxCell>
        <mxCell id="iEk-QBiO7u8IQEbBDVrZ-212" value="PASSWORD_RESET_TOKENS" style="shape=table;startSize=25;container=1;collapsible=0;childLayout=tableLayout;fixedRows=1;rowLines=1;fontStyle=1;align=center;resizeLast=1;" vertex="1" parent="1">
          <mxGeometry x="421" y="1208" width="241" height="385" as="geometry" />
        </mxCell>
        <mxCell id="iEk-QBiO7u8IQEbBDVrZ-213" style="shape=tableRow;horizontal=0;startSize=0;swimlaneHead=0;swimlaneBody=0;fillColor=none;collapsible=0;dropTarget=0;points=[[0,0.5],[1,0.5]];portConstraint=eastwest;top=0;left=0;right=0;bottom=0;" vertex="1" parent="iEk-QBiO7u8IQEbBDVrZ-212">
          <mxGeometry y="25" width="241" height="45" as="geometry" />
        </mxCell>
        <mxCell id="iEk-QBiO7u8IQEbBDVrZ-214" value="int" style="shape=partialRectangle;connectable=0;fillColor=none;top=0;left=0;bottom=0;right=0;align=left;spacingLeft=2;overflow=hidden;fontSize=11;" vertex="1" parent="iEk-QBiO7u8IQEbBDVrZ-213">
          <mxGeometry width="48" height="45" as="geometry">
            <mxRectangle width="48" height="45" as="alternateBounds" />
          </mxGeometry>
        </mxCell>
        <mxCell id="iEk-QBiO7u8IQEbBDVrZ-215" value="id" style="shape=partialRectangle;connectable=0;fillColor=none;top=0;left=0;bottom=0;right=0;align=left;spacingLeft=2;overflow=hidden;fontSize=11;" vertex="1" parent="iEk-QBiO7u8IQEbBDVrZ-213">
          <mxGeometry x="48" width="193" height="45" as="geometry">
            <mxRectangle width="193" height="45" as="alternateBounds" />
          </mxGeometry>
        </mxCell>
        <mxCell id="iEk-QBiO7u8IQEbBDVrZ-216" style="shape=tableRow;horizontal=0;startSize=0;swimlaneHead=0;swimlaneBody=0;fillColor=none;collapsible=0;dropTarget=0;points=[[0,0.5],[1,0.5]];portConstraint=eastwest;top=0;left=0;right=0;bottom=0;" vertex="1" parent="iEk-QBiO7u8IQEbBDVrZ-212">
          <mxGeometry y="70" width="241" height="45" as="geometry" />
        </mxCell>
        <mxCell id="iEk-QBiO7u8IQEbBDVrZ-217" value="int" style="shape=partialRectangle;connectable=0;fillColor=none;top=0;left=0;bottom=0;right=0;align=left;spacingLeft=2;overflow=hidden;fontSize=11;" vertex="1" parent="iEk-QBiO7u8IQEbBDVrZ-216">
          <mxGeometry width="48" height="45" as="geometry">
            <mxRectangle width="48" height="45" as="alternateBounds" />
          </mxGeometry>
        </mxCell>
        <mxCell id="iEk-QBiO7u8IQEbBDVrZ-218" value="user_id" style="shape=partialRectangle;connectable=0;fillColor=none;top=0;left=0;bottom=0;right=0;align=left;spacingLeft=2;overflow=hidden;fontSize=11;" vertex="1" parent="iEk-QBiO7u8IQEbBDVrZ-216">
          <mxGeometry x="48" width="193" height="45" as="geometry">
            <mxRectangle width="193" height="45" as="alternateBounds" />
          </mxGeometry>
        </mxCell>
        <mxCell id="iEk-QBiO7u8IQEbBDVrZ-219" style="shape=tableRow;horizontal=0;startSize=0;swimlaneHead=0;swimlaneBody=0;fillColor=none;collapsible=0;dropTarget=0;points=[[0,0.5],[1,0.5]];portConstraint=eastwest;top=0;left=0;right=0;bottom=0;" vertex="1" parent="iEk-QBiO7u8IQEbBDVrZ-212">
          <mxGeometry y="115" width="241" height="45" as="geometry" />
        </mxCell>
        <mxCell id="iEk-QBiO7u8IQEbBDVrZ-220" value="varchar" style="shape=partialRectangle;connectable=0;fillColor=none;top=0;left=0;bottom=0;right=0;align=left;spacingLeft=2;overflow=hidden;fontSize=11;" vertex="1" parent="iEk-QBiO7u8IQEbBDVrZ-219">
          <mxGeometry width="48" height="45" as="geometry">
            <mxRectangle width="48" height="45" as="alternateBounds" />
          </mxGeometry>
        </mxCell>
        <mxCell id="iEk-QBiO7u8IQEbBDVrZ-221" value="token_hash" style="shape=partialRectangle;connectable=0;fillColor=none;top=0;left=0;bottom=0;right=0;align=left;spacingLeft=2;overflow=hidden;fontSize=11;" vertex="1" parent="iEk-QBiO7u8IQEbBDVrZ-219">
          <mxGeometry x="48" width="193" height="45" as="geometry">
            <mxRectangle width="193" height="45" as="alternateBounds" />
          </mxGeometry>
        </mxCell>
        <mxCell id="iEk-QBiO7u8IQEbBDVrZ-222" style="shape=tableRow;horizontal=0;startSize=0;swimlaneHead=0;swimlaneBody=0;fillColor=none;collapsible=0;dropTarget=0;points=[[0,0.5],[1,0.5]];portConstraint=eastwest;top=0;left=0;right=0;bottom=0;" vertex="1" parent="iEk-QBiO7u8IQEbBDVrZ-212">
          <mxGeometry y="160" width="241" height="45" as="geometry" />
        </mxCell>
        <mxCell id="iEk-QBiO7u8IQEbBDVrZ-223" value="datetime" style="shape=partialRectangle;connectable=0;fillColor=none;top=0;left=0;bottom=0;right=0;align=left;spacingLeft=2;overflow=hidden;fontSize=11;" vertex="1" parent="iEk-QBiO7u8IQEbBDVrZ-222">
          <mxGeometry width="48" height="45" as="geometry">
            <mxRectangle width="48" height="45" as="alternateBounds" />
          </mxGeometry>
        </mxCell>
        <mxCell id="iEk-QBiO7u8IQEbBDVrZ-224" value="expires_at" style="shape=partialRectangle;connectable=0;fillColor=none;top=0;left=0;bottom=0;right=0;align=left;spacingLeft=2;overflow=hidden;fontSize=11;" vertex="1" parent="iEk-QBiO7u8IQEbBDVrZ-222">
          <mxGeometry x="48" width="193" height="45" as="geometry">
            <mxRectangle width="193" height="45" as="alternateBounds" />
          </mxGeometry>
        </mxCell>
        <mxCell id="iEk-QBiO7u8IQEbBDVrZ-225" style="shape=tableRow;horizontal=0;startSize=0;swimlaneHead=0;swimlaneBody=0;fillColor=none;collapsible=0;dropTarget=0;points=[[0,0.5],[1,0.5]];portConstraint=eastwest;top=0;left=0;right=0;bottom=0;" vertex="1" parent="iEk-QBiO7u8IQEbBDVrZ-212">
          <mxGeometry y="205" width="241" height="45" as="geometry" />
        </mxCell>
        <mxCell id="iEk-QBiO7u8IQEbBDVrZ-226" value="datetime" style="shape=partialRectangle;connectable=0;fillColor=none;top=0;left=0;bottom=0;right=0;align=left;spacingLeft=2;overflow=hidden;fontSize=11;" vertex="1" parent="iEk-QBiO7u8IQEbBDVrZ-225">
          <mxGeometry width="48" height="45" as="geometry">
            <mxRectangle width="48" height="45" as="alternateBounds" />
          </mxGeometry>
        </mxCell>
        <mxCell id="iEk-QBiO7u8IQEbBDVrZ-227" value="used_at" style="shape=partialRectangle;connectable=0;fillColor=none;top=0;left=0;bottom=0;right=0;align=left;spacingLeft=2;overflow=hidden;fontSize=11;" vertex="1" parent="iEk-QBiO7u8IQEbBDVrZ-225">
          <mxGeometry x="48" width="193" height="45" as="geometry">
            <mxRectangle width="193" height="45" as="alternateBounds" />
          </mxGeometry>
        </mxCell>
        <mxCell id="iEk-QBiO7u8IQEbBDVrZ-228" style="shape=tableRow;horizontal=0;startSize=0;swimlaneHead=0;swimlaneBody=0;fillColor=none;collapsible=0;dropTarget=0;points=[[0,0.5],[1,0.5]];portConstraint=eastwest;top=0;left=0;right=0;bottom=0;" vertex="1" parent="iEk-QBiO7u8IQEbBDVrZ-212">
          <mxGeometry y="250" width="241" height="45" as="geometry" />
        </mxCell>
        <mxCell id="iEk-QBiO7u8IQEbBDVrZ-229" value="varchar" style="shape=partialRectangle;connectable=0;fillColor=none;top=0;left=0;bottom=0;right=0;align=left;spacingLeft=2;overflow=hidden;fontSize=11;" vertex="1" parent="iEk-QBiO7u8IQEbBDVrZ-228">
          <mxGeometry width="48" height="45" as="geometry">
            <mxRectangle width="48" height="45" as="alternateBounds" />
          </mxGeometry>
        </mxCell>
        <mxCell id="iEk-QBiO7u8IQEbBDVrZ-230" value="ip" style="shape=partialRectangle;connectable=0;fillColor=none;top=0;left=0;bottom=0;right=0;align=left;spacingLeft=2;overflow=hidden;fontSize=11;" vertex="1" parent="iEk-QBiO7u8IQEbBDVrZ-228">
          <mxGeometry x="48" width="193" height="45" as="geometry">
            <mxRectangle width="193" height="45" as="alternateBounds" />
          </mxGeometry>
        </mxCell>
        <mxCell id="iEk-QBiO7u8IQEbBDVrZ-231" style="shape=tableRow;horizontal=0;startSize=0;swimlaneHead=0;swimlaneBody=0;fillColor=none;collapsible=0;dropTarget=0;points=[[0,0.5],[1,0.5]];portConstraint=eastwest;top=0;left=0;right=0;bottom=0;" vertex="1" parent="iEk-QBiO7u8IQEbBDVrZ-212">
          <mxGeometry y="295" width="241" height="45" as="geometry" />
        </mxCell>
        <mxCell id="iEk-QBiO7u8IQEbBDVrZ-232" value="varchar" style="shape=partialRectangle;connectable=0;fillColor=none;top=0;left=0;bottom=0;right=0;align=left;spacingLeft=2;overflow=hidden;fontSize=11;" vertex="1" parent="iEk-QBiO7u8IQEbBDVrZ-231">
          <mxGeometry width="48" height="45" as="geometry">
            <mxRectangle width="48" height="45" as="alternateBounds" />
          </mxGeometry>
        </mxCell>
        <mxCell id="iEk-QBiO7u8IQEbBDVrZ-233" value="user_agent" style="shape=partialRectangle;connectable=0;fillColor=none;top=0;left=0;bottom=0;right=0;align=left;spacingLeft=2;overflow=hidden;fontSize=11;" vertex="1" parent="iEk-QBiO7u8IQEbBDVrZ-231">
          <mxGeometry x="48" width="193" height="45" as="geometry">
            <mxRectangle width="193" height="45" as="alternateBounds" />
          </mxGeometry>
        </mxCell>
        <mxCell id="iEk-QBiO7u8IQEbBDVrZ-234" style="shape=tableRow;horizontal=0;startSize=0;swimlaneHead=0;swimlaneBody=0;fillColor=none;collapsible=0;dropTarget=0;points=[[0,0.5],[1,0.5]];portConstraint=eastwest;top=0;left=0;right=0;bottom=0;" vertex="1" parent="iEk-QBiO7u8IQEbBDVrZ-212">
          <mxGeometry y="340" width="241" height="45" as="geometry" />
        </mxCell>
        <mxCell id="iEk-QBiO7u8IQEbBDVrZ-235" value="datetime" style="shape=partialRectangle;connectable=0;fillColor=none;top=0;left=0;bottom=0;right=0;align=left;spacingLeft=2;overflow=hidden;fontSize=11;" vertex="1" parent="iEk-QBiO7u8IQEbBDVrZ-234">
          <mxGeometry width="48" height="45" as="geometry">
            <mxRectangle width="48" height="45" as="alternateBounds" />
          </mxGeometry>
        </mxCell>
        <mxCell id="iEk-QBiO7u8IQEbBDVrZ-236" value="created_at" style="shape=partialRectangle;connectable=0;fillColor=none;top=0;left=0;bottom=0;right=0;align=left;spacingLeft=2;overflow=hidden;fontSize=11;" vertex="1" parent="iEk-QBiO7u8IQEbBDVrZ-234">
          <mxGeometry x="48" width="193" height="45" as="geometry">
            <mxRectangle width="193" height="45" as="alternateBounds" />
          </mxGeometry>
        </mxCell>
        <mxCell id="iEk-QBiO7u8IQEbBDVrZ-237" value="role_id" style="curved=1;startArrow=ERmandOne;startSize=10;;endArrow=ERzeroToMany;endSize=10;;exitX=0.5;exitY=1;entryX=0;entryY=0.07;rounded=0;" edge="1" parent="1" source="iEk-QBiO7u8IQEbBDVrZ-106" target="iEk-QBiO7u8IQEbBDVrZ-72">
          <mxGeometry relative="1" as="geometry">
            <Array as="points">
              <mxPoint x="188" y="413" />
            </Array>
          </mxGeometry>
        </mxCell>
        <mxCell id="iEk-QBiO7u8IQEbBDVrZ-238" value="competence_id" style="curved=1;startArrow=ERmandOne;startSize=10;;endArrow=ERzeroToMany;endSize=10;;exitX=0.5;exitY=1;entryX=1;entryY=0.07;rounded=0;" edge="1" parent="1" source="iEk-QBiO7u8IQEbBDVrZ-113" target="iEk-QBiO7u8IQEbBDVrZ-72">
          <mxGeometry relative="1" as="geometry">
            <Array as="points">
              <mxPoint x="504" y="413" />
            </Array>
          </mxGeometry>
        </mxCell>
        <mxCell id="iEk-QBiO7u8IQEbBDVrZ-239" value="chef_de_projet_id" style="curved=1;startArrow=ERmandOne;startSize=10;;endArrow=ERzeroToMany;endSize=10;;exitX=0;exitY=0.84;entryX=0.5;entryY=0;rounded=0;" edge="1" parent="1" source="iEk-QBiO7u8IQEbBDVrZ-72" target="iEk-QBiO7u8IQEbBDVrZ-135">
          <mxGeometry relative="1" as="geometry">
            <Array as="points">
              <mxPoint x="150" y="1029" />
            </Array>
          </mxGeometry>
        </mxCell>
        <mxCell id="iEk-QBiO7u8IQEbBDVrZ-240" value="construction_site_id" style="curved=1;startArrow=ERmandOne;startSize=10;;endArrow=ERzeroToMany;endSize=10;;exitX=0.5;exitY=1;entryX=0.5;entryY=0;rounded=0;" edge="1" parent="1" source="iEk-QBiO7u8IQEbBDVrZ-135" target="iEk-QBiO7u8IQEbBDVrZ-178">
          <mxGeometry relative="1" as="geometry">
            <Array as="points" />
          </mxGeometry>
        </mxCell>
        <mxCell id="iEk-QBiO7u8IQEbBDVrZ-241" value="user_id" style="curved=1;startArrow=ERmandOne;startSize=10;;endArrow=ERzeroToMany;endSize=10;;exitX=1;exitY=0.84;entryX=0.5;entryY=0;rounded=0;" edge="1" parent="1" source="iEk-QBiO7u8IQEbBDVrZ-72" target="iEk-QBiO7u8IQEbBDVrZ-212">
          <mxGeometry relative="1" as="geometry">
            <Array as="points">
              <mxPoint x="541" y="1029" />
            </Array>
          </mxGeometry>
        </mxCell>
      </root>
    </mxGraphModel>
  </diagram>
</mxfile>
